<mxfile host="app.diagrams.net" modified="2020-12-30T06:14:43.106Z" agent="5.0 (Macintosh; Intel Mac OS X 10_14_4) AppleWebKit/537.36 (KHTML, like Gecko) Chrome/87.0.4280.88 Safari/537.36" etag="ne82F9oBR9KUgpWLT3EH" version="14.1.2" type="github">
  <diagram id="R2lEEEUBdFMjLlhIrx00" name="Page-1">
    <mxGraphModel dx="4577" dy="631" grid="1" gridSize="10" guides="1" tooltips="1" connect="1" arrows="1" fold="1" page="1" pageScale="1" pageWidth="850" pageHeight="1100" math="0" shadow="0" extFonts="Permanent Marker^https://fonts.googleapis.com/css?family=Permanent+Marker">
      <root>
        <mxCell id="0" />
        <mxCell id="1" parent="0" />
        <mxCell id="g749_msIezuKp8OIKfwZ-3" value="sn" style="shape=partialRectangle;overflow=hidden;connectable=0;fillColor=none;top=0;left=0;bottom=0;right=0;align=left;spacingLeft=6;" vertex="1" parent="1">
          <mxGeometry x="150" y="210" width="220" height="30" as="geometry" />
        </mxCell>
        <mxCell id="g749_msIezuKp8OIKfwZ-5" value="`admin` (管理员表)" style="shape=table;startSize=30;container=1;collapsible=1;childLayout=tableLayout;fixedRows=1;rowLines=0;fontStyle=1;align=center;resizeLast=1;" vertex="1" parent="1">
          <mxGeometry x="-2940" y="150" width="450" height="430" as="geometry" />
        </mxCell>
        <mxCell id="g749_msIezuKp8OIKfwZ-6" value="" style="shape=partialRectangle;collapsible=0;dropTarget=0;pointerEvents=0;fillColor=none;points=[[0,0.5],[1,0.5]];portConstraint=eastwest;top=0;left=0;right=0;bottom=0;" vertex="1" parent="g749_msIezuKp8OIKfwZ-5">
          <mxGeometry y="30" width="450" height="30" as="geometry" />
        </mxCell>
        <mxCell id="g749_msIezuKp8OIKfwZ-7" value="" style="shape=partialRectangle;overflow=hidden;connectable=0;fillColor=none;top=0;left=0;bottom=0;right=0;" vertex="1" parent="g749_msIezuKp8OIKfwZ-6">
          <mxGeometry width="30" height="30" as="geometry" />
        </mxCell>
        <mxCell id="g749_msIezuKp8OIKfwZ-8" value="`id` int(11) NOT NULL AUTO_INCREMENT COMMENT &#39;主键id&#39;" style="shape=partialRectangle;overflow=hidden;connectable=0;fillColor=none;top=0;left=0;bottom=0;right=0;align=left;spacingLeft=6;" vertex="1" parent="g749_msIezuKp8OIKfwZ-6">
          <mxGeometry x="30" width="420" height="30" as="geometry" />
        </mxCell>
        <mxCell id="g749_msIezuKp8OIKfwZ-9" value="" style="shape=partialRectangle;collapsible=0;dropTarget=0;pointerEvents=0;fillColor=none;points=[[0,0.5],[1,0.5]];portConstraint=eastwest;top=0;left=0;right=0;bottom=0;" vertex="1" parent="g749_msIezuKp8OIKfwZ-5">
          <mxGeometry y="60" width="450" height="30" as="geometry" />
        </mxCell>
        <mxCell id="g749_msIezuKp8OIKfwZ-10" value="" style="shape=partialRectangle;overflow=hidden;connectable=0;fillColor=none;top=0;left=0;bottom=0;right=0;" vertex="1" parent="g749_msIezuKp8OIKfwZ-9">
          <mxGeometry width="30" height="30" as="geometry" />
        </mxCell>
        <mxCell id="g749_msIezuKp8OIKfwZ-11" value="`sn` varchar(30) DEFAULT NULL COMMENT &#39;工号&#39;" style="shape=partialRectangle;overflow=hidden;connectable=0;fillColor=none;top=0;left=0;bottom=0;right=0;align=left;spacingLeft=6;" vertex="1" parent="g749_msIezuKp8OIKfwZ-9">
          <mxGeometry x="30" width="420" height="30" as="geometry" />
        </mxCell>
        <mxCell id="g749_msIezuKp8OIKfwZ-12" value="" style="shape=partialRectangle;collapsible=0;dropTarget=0;pointerEvents=0;fillColor=none;points=[[0,0.5],[1,0.5]];portConstraint=eastwest;top=0;left=0;right=0;bottom=0;" vertex="1" parent="g749_msIezuKp8OIKfwZ-5">
          <mxGeometry y="90" width="450" height="30" as="geometry" />
        </mxCell>
        <mxCell id="g749_msIezuKp8OIKfwZ-13" value="" style="shape=partialRectangle;overflow=hidden;connectable=0;fillColor=none;top=0;left=0;bottom=0;right=0;" vertex="1" parent="g749_msIezuKp8OIKfwZ-12">
          <mxGeometry width="30" height="30" as="geometry" />
        </mxCell>
        <mxCell id="g749_msIezuKp8OIKfwZ-14" value="`org_id` int(11) DEFAULT NULL COMMENT &#39;所属组织机构&#39;" style="shape=partialRectangle;overflow=hidden;connectable=0;fillColor=none;top=0;left=0;bottom=0;right=0;align=left;spacingLeft=6;" vertex="1" parent="g749_msIezuKp8OIKfwZ-12">
          <mxGeometry x="30" width="420" height="30" as="geometry" />
        </mxCell>
        <mxCell id="g749_msIezuKp8OIKfwZ-15" value="" style="shape=partialRectangle;collapsible=0;dropTarget=0;pointerEvents=0;fillColor=none;points=[[0,0.5],[1,0.5]];portConstraint=eastwest;top=0;left=0;right=0;bottom=0;" vertex="1" parent="g749_msIezuKp8OIKfwZ-5">
          <mxGeometry y="120" width="450" height="30" as="geometry" />
        </mxCell>
        <mxCell id="g749_msIezuKp8OIKfwZ-16" value="" style="shape=partialRectangle;overflow=hidden;connectable=0;fillColor=none;top=0;left=0;bottom=0;right=0;" vertex="1" parent="g749_msIezuKp8OIKfwZ-15">
          <mxGeometry width="30" height="30" as="geometry" />
        </mxCell>
        <mxCell id="g749_msIezuKp8OIKfwZ-17" value="`mobile` varchar(20) DEFAULT NULL COMMENT &#39;电话&#39;" style="shape=partialRectangle;overflow=hidden;connectable=0;fillColor=none;top=0;left=0;bottom=0;right=0;align=left;spacingLeft=6;" vertex="1" parent="g749_msIezuKp8OIKfwZ-15">
          <mxGeometry x="30" width="420" height="30" as="geometry" />
        </mxCell>
        <mxCell id="g749_msIezuKp8OIKfwZ-18" value="" style="shape=partialRectangle;collapsible=0;dropTarget=0;pointerEvents=0;fillColor=none;points=[[0,0.5],[1,0.5]];portConstraint=eastwest;top=0;left=0;right=0;bottom=0;" vertex="1" parent="g749_msIezuKp8OIKfwZ-5">
          <mxGeometry y="150" width="450" height="30" as="geometry" />
        </mxCell>
        <mxCell id="g749_msIezuKp8OIKfwZ-19" value="" style="shape=partialRectangle;overflow=hidden;connectable=0;fillColor=none;top=0;left=0;bottom=0;right=0;" vertex="1" parent="g749_msIezuKp8OIKfwZ-18">
          <mxGeometry width="30" height="30" as="geometry" />
        </mxCell>
        <mxCell id="g749_msIezuKp8OIKfwZ-20" value="`account` varchar(64) NOT NULL DEFAULT &#39;&#39; COMMENT &#39;账号&#39;" style="shape=partialRectangle;overflow=hidden;connectable=0;fillColor=none;top=0;left=0;bottom=0;right=0;align=left;spacingLeft=6;" vertex="1" parent="g749_msIezuKp8OIKfwZ-18">
          <mxGeometry x="30" width="420" height="30" as="geometry" />
        </mxCell>
        <mxCell id="g749_msIezuKp8OIKfwZ-21" value="" style="shape=partialRectangle;collapsible=0;dropTarget=0;pointerEvents=0;fillColor=none;points=[[0,0.5],[1,0.5]];portConstraint=eastwest;top=0;left=0;right=0;bottom=0;" vertex="1" parent="g749_msIezuKp8OIKfwZ-5">
          <mxGeometry y="180" width="450" height="30" as="geometry" />
        </mxCell>
        <mxCell id="g749_msIezuKp8OIKfwZ-22" value="" style="shape=partialRectangle;overflow=hidden;connectable=0;fillColor=none;top=0;left=0;bottom=0;right=0;" vertex="1" parent="g749_msIezuKp8OIKfwZ-21">
          <mxGeometry width="30" height="30" as="geometry" />
        </mxCell>
        <mxCell id="g749_msIezuKp8OIKfwZ-23" value="`password` varchar(64) NOT NULL DEFAULT &#39;&#39; COMMENT &#39;密码&#39;" style="shape=partialRectangle;overflow=hidden;connectable=0;fillColor=none;top=0;left=0;bottom=0;right=0;align=left;spacingLeft=6;" vertex="1" parent="g749_msIezuKp8OIKfwZ-21">
          <mxGeometry x="30" width="420" height="30" as="geometry" />
        </mxCell>
        <mxCell id="g749_msIezuKp8OIKfwZ-24" value="" style="shape=partialRectangle;collapsible=0;dropTarget=0;pointerEvents=0;fillColor=none;points=[[0,0.5],[1,0.5]];portConstraint=eastwest;top=0;left=0;right=0;bottom=0;" vertex="1" parent="g749_msIezuKp8OIKfwZ-5">
          <mxGeometry y="210" width="450" height="30" as="geometry" />
        </mxCell>
        <mxCell id="g749_msIezuKp8OIKfwZ-25" value="" style="shape=partialRectangle;overflow=hidden;connectable=0;fillColor=none;top=0;left=0;bottom=0;right=0;" vertex="1" parent="g749_msIezuKp8OIKfwZ-24">
          <mxGeometry width="30" height="30" as="geometry" />
        </mxCell>
        <mxCell id="g749_msIezuKp8OIKfwZ-26" value="`email` varchar(100) DEFAULT NULL COMMENT &#39;邮箱&#39;" style="shape=partialRectangle;overflow=hidden;connectable=0;fillColor=none;top=0;left=0;bottom=0;right=0;align=left;spacingLeft=6;" vertex="1" parent="g749_msIezuKp8OIKfwZ-24">
          <mxGeometry x="30" width="420" height="30" as="geometry" />
        </mxCell>
        <mxCell id="g749_msIezuKp8OIKfwZ-27" value="" style="shape=partialRectangle;collapsible=0;dropTarget=0;pointerEvents=0;fillColor=none;points=[[0,0.5],[1,0.5]];portConstraint=eastwest;top=0;left=0;right=0;bottom=0;" vertex="1" parent="g749_msIezuKp8OIKfwZ-5">
          <mxGeometry y="240" width="450" height="30" as="geometry" />
        </mxCell>
        <mxCell id="g749_msIezuKp8OIKfwZ-28" value="" style="shape=partialRectangle;overflow=hidden;connectable=0;fillColor=none;top=0;left=0;bottom=0;right=0;" vertex="1" parent="g749_msIezuKp8OIKfwZ-27">
          <mxGeometry width="30" height="30" as="geometry" />
        </mxCell>
        <mxCell id="g749_msIezuKp8OIKfwZ-29" value="`name` varchar(200) DEFAULT NULL COMMENT &#39;昵称&#39;" style="shape=partialRectangle;overflow=hidden;connectable=0;fillColor=none;top=0;left=0;bottom=0;right=0;align=left;spacingLeft=6;" vertex="1" parent="g749_msIezuKp8OIKfwZ-27">
          <mxGeometry x="30" width="420" height="30" as="geometry" />
        </mxCell>
        <mxCell id="g749_msIezuKp8OIKfwZ-30" value="" style="shape=partialRectangle;collapsible=0;dropTarget=0;pointerEvents=0;fillColor=none;points=[[0,0.5],[1,0.5]];portConstraint=eastwest;top=0;left=0;right=0;bottom=0;" vertex="1" parent="g749_msIezuKp8OIKfwZ-5">
          <mxGeometry y="270" width="450" height="30" as="geometry" />
        </mxCell>
        <mxCell id="g749_msIezuKp8OIKfwZ-31" value="" style="shape=partialRectangle;overflow=hidden;connectable=0;fillColor=none;top=0;left=0;bottom=0;right=0;" vertex="1" parent="g749_msIezuKp8OIKfwZ-30">
          <mxGeometry width="30" height="30" as="geometry" />
        </mxCell>
        <mxCell id="g749_msIezuKp8OIKfwZ-32" value="`note` varchar(500) DEFAULT NULL COMMENT &#39;备注信息&#39;" style="shape=partialRectangle;overflow=hidden;connectable=0;fillColor=none;top=0;left=0;bottom=0;right=0;align=left;spacingLeft=6;" vertex="1" parent="g749_msIezuKp8OIKfwZ-30">
          <mxGeometry x="30" width="420" height="30" as="geometry" />
        </mxCell>
        <mxCell id="g749_msIezuKp8OIKfwZ-33" value="" style="shape=partialRectangle;collapsible=0;dropTarget=0;pointerEvents=0;fillColor=none;points=[[0,0.5],[1,0.5]];portConstraint=eastwest;top=0;left=0;right=0;bottom=0;" vertex="1" parent="g749_msIezuKp8OIKfwZ-5">
          <mxGeometry y="300" width="450" height="30" as="geometry" />
        </mxCell>
        <mxCell id="g749_msIezuKp8OIKfwZ-34" value="" style="shape=partialRectangle;overflow=hidden;connectable=0;fillColor=none;top=0;left=0;bottom=0;right=0;" vertex="1" parent="g749_msIezuKp8OIKfwZ-33">
          <mxGeometry width="30" height="30" as="geometry" />
        </mxCell>
        <mxCell id="g749_msIezuKp8OIKfwZ-35" value="`status` int(1) DEFAULT &#39;1&#39; COMMENT &#39;帐号启用状态：0-&gt;禁用；1-&gt;启用&#39;" style="shape=partialRectangle;overflow=hidden;connectable=0;fillColor=none;top=0;left=0;bottom=0;right=0;align=left;spacingLeft=6;" vertex="1" parent="g749_msIezuKp8OIKfwZ-33">
          <mxGeometry x="30" width="420" height="30" as="geometry" />
        </mxCell>
        <mxCell id="g749_msIezuKp8OIKfwZ-36" value="" style="shape=partialRectangle;collapsible=0;dropTarget=0;pointerEvents=0;fillColor=none;points=[[0,0.5],[1,0.5]];portConstraint=eastwest;top=0;left=0;right=0;bottom=0;" vertex="1" parent="g749_msIezuKp8OIKfwZ-5">
          <mxGeometry y="330" width="450" height="30" as="geometry" />
        </mxCell>
        <mxCell id="g749_msIezuKp8OIKfwZ-37" value="" style="shape=partialRectangle;overflow=hidden;connectable=0;fillColor=none;top=0;left=0;bottom=0;right=0;" vertex="1" parent="g749_msIezuKp8OIKfwZ-36">
          <mxGeometry width="30" height="30" as="geometry" />
        </mxCell>
        <mxCell id="g749_msIezuKp8OIKfwZ-38" value="`login_time` datetime DEFAULT NULL COMMENT &#39;最后登录时间&#39;" style="shape=partialRectangle;overflow=hidden;connectable=0;fillColor=none;top=0;left=0;bottom=0;right=0;align=left;spacingLeft=6;" vertex="1" parent="g749_msIezuKp8OIKfwZ-36">
          <mxGeometry x="30" width="420" height="30" as="geometry" />
        </mxCell>
        <mxCell id="g749_msIezuKp8OIKfwZ-39" value="" style="shape=partialRectangle;collapsible=0;dropTarget=0;pointerEvents=0;fillColor=none;points=[[0,0.5],[1,0.5]];portConstraint=eastwest;top=0;left=0;right=0;bottom=0;" vertex="1" parent="g749_msIezuKp8OIKfwZ-5">
          <mxGeometry y="360" width="450" height="30" as="geometry" />
        </mxCell>
        <mxCell id="g749_msIezuKp8OIKfwZ-40" value="" style="shape=partialRectangle;overflow=hidden;connectable=0;fillColor=none;top=0;left=0;bottom=0;right=0;" vertex="1" parent="g749_msIezuKp8OIKfwZ-39">
          <mxGeometry width="30" height="30" as="geometry" />
        </mxCell>
        <mxCell id="g749_msIezuKp8OIKfwZ-41" value="`create_time` datetime DEFAULT NULL COMMENT &#39;创建时间&#39;" style="shape=partialRectangle;overflow=hidden;connectable=0;fillColor=none;top=0;left=0;bottom=0;right=0;align=left;spacingLeft=6;" vertex="1" parent="g749_msIezuKp8OIKfwZ-39">
          <mxGeometry x="30" width="420" height="30" as="geometry" />
        </mxCell>
        <mxCell id="g749_msIezuKp8OIKfwZ-42" value="" style="shape=partialRectangle;collapsible=0;dropTarget=0;pointerEvents=0;fillColor=none;points=[[0,0.5],[1,0.5]];portConstraint=eastwest;top=0;left=0;right=0;bottom=0;" vertex="1" parent="g749_msIezuKp8OIKfwZ-5">
          <mxGeometry y="390" width="450" height="30" as="geometry" />
        </mxCell>
        <mxCell id="g749_msIezuKp8OIKfwZ-43" value="" style="shape=partialRectangle;overflow=hidden;connectable=0;fillColor=none;top=0;left=0;bottom=0;right=0;" vertex="1" parent="g749_msIezuKp8OIKfwZ-42">
          <mxGeometry width="30" height="30" as="geometry" />
        </mxCell>
        <mxCell id="g749_msIezuKp8OIKfwZ-44" value="`update_time` datetime DEFAULT NULL COMMENT &#39;更新时间&#39;" style="shape=partialRectangle;overflow=hidden;connectable=0;fillColor=none;top=0;left=0;bottom=0;right=0;align=left;spacingLeft=6;" vertex="1" parent="g749_msIezuKp8OIKfwZ-42">
          <mxGeometry x="30" width="420" height="30" as="geometry" />
        </mxCell>
        <mxCell id="g749_msIezuKp8OIKfwZ-45" value="`admin_permission` (管理员和权限关系表)" style="shape=table;startSize=30;container=1;collapsible=1;childLayout=tableLayout;fixedRows=1;rowLines=0;fontStyle=1;align=center;resizeLast=1;" vertex="1" parent="1">
          <mxGeometry x="-2400" y="360" width="320" height="130" as="geometry" />
        </mxCell>
        <mxCell id="g749_msIezuKp8OIKfwZ-46" value="" style="shape=partialRectangle;collapsible=0;dropTarget=0;pointerEvents=0;fillColor=none;points=[[0,0.5],[1,0.5]];portConstraint=eastwest;top=0;left=0;right=0;bottom=0;" vertex="1" parent="g749_msIezuKp8OIKfwZ-45">
          <mxGeometry y="30" width="320" height="30" as="geometry" />
        </mxCell>
        <mxCell id="g749_msIezuKp8OIKfwZ-47" value="" style="shape=partialRectangle;overflow=hidden;connectable=0;fillColor=none;top=0;left=0;bottom=0;right=0;" vertex="1" parent="g749_msIezuKp8OIKfwZ-46">
          <mxGeometry width="30" height="30" as="geometry" />
        </mxCell>
        <mxCell id="g749_msIezuKp8OIKfwZ-48" value="`id` int(11) NOT NULL AUTO_INCREMENT COMMENT &#39;主键id&#39;" style="shape=partialRectangle;overflow=hidden;connectable=0;fillColor=none;top=0;left=0;bottom=0;right=0;align=left;spacingLeft=6;" vertex="1" parent="g749_msIezuKp8OIKfwZ-46">
          <mxGeometry x="30" width="290" height="30" as="geometry" />
        </mxCell>
        <mxCell id="g749_msIezuKp8OIKfwZ-49" value="" style="shape=partialRectangle;collapsible=0;dropTarget=0;pointerEvents=0;fillColor=none;points=[[0,0.5],[1,0.5]];portConstraint=eastwest;top=0;left=0;right=0;bottom=0;" vertex="1" parent="g749_msIezuKp8OIKfwZ-45">
          <mxGeometry y="60" width="320" height="30" as="geometry" />
        </mxCell>
        <mxCell id="g749_msIezuKp8OIKfwZ-50" value="" style="shape=partialRectangle;overflow=hidden;connectable=0;fillColor=none;top=0;left=0;bottom=0;right=0;" vertex="1" parent="g749_msIezuKp8OIKfwZ-49">
          <mxGeometry width="30" height="30" as="geometry" />
        </mxCell>
        <mxCell id="g749_msIezuKp8OIKfwZ-51" value="`admin_id` int(11) DEFAULT NULL COMMENT &#39;管理员id&#39;" style="shape=partialRectangle;overflow=hidden;connectable=0;fillColor=none;top=0;left=0;bottom=0;right=0;align=left;spacingLeft=6;" vertex="1" parent="g749_msIezuKp8OIKfwZ-49">
          <mxGeometry x="30" width="290" height="30" as="geometry" />
        </mxCell>
        <mxCell id="g749_msIezuKp8OIKfwZ-52" value="" style="shape=partialRectangle;collapsible=0;dropTarget=0;pointerEvents=0;fillColor=none;points=[[0,0.5],[1,0.5]];portConstraint=eastwest;top=0;left=0;right=0;bottom=0;" vertex="1" parent="g749_msIezuKp8OIKfwZ-45">
          <mxGeometry y="90" width="320" height="30" as="geometry" />
        </mxCell>
        <mxCell id="g749_msIezuKp8OIKfwZ-53" value="" style="shape=partialRectangle;overflow=hidden;connectable=0;fillColor=none;top=0;left=0;bottom=0;right=0;" vertex="1" parent="g749_msIezuKp8OIKfwZ-52">
          <mxGeometry width="30" height="30" as="geometry" />
        </mxCell>
        <mxCell id="g749_msIezuKp8OIKfwZ-54" value="`permission_id` int(11) DEFAULT NULL COMMENT &#39;权限id&#39;" style="shape=partialRectangle;overflow=hidden;connectable=0;fillColor=none;top=0;left=0;bottom=0;right=0;align=left;spacingLeft=6;" vertex="1" parent="g749_msIezuKp8OIKfwZ-52">
          <mxGeometry x="30" width="290" height="30" as="geometry" />
        </mxCell>
        <mxCell id="g749_msIezuKp8OIKfwZ-55" value="`admin_role` (管理员和角色关系表)" style="shape=table;startSize=30;container=1;collapsible=1;childLayout=tableLayout;fixedRows=1;rowLines=0;fontStyle=1;align=center;resizeLast=1;" vertex="1" parent="1">
          <mxGeometry x="-2400" y="170" width="320" height="130" as="geometry" />
        </mxCell>
        <mxCell id="g749_msIezuKp8OIKfwZ-56" value="" style="shape=partialRectangle;collapsible=0;dropTarget=0;pointerEvents=0;fillColor=none;points=[[0,0.5],[1,0.5]];portConstraint=eastwest;top=0;left=0;right=0;bottom=0;" vertex="1" parent="g749_msIezuKp8OIKfwZ-55">
          <mxGeometry y="30" width="320" height="30" as="geometry" />
        </mxCell>
        <mxCell id="g749_msIezuKp8OIKfwZ-57" value="" style="shape=partialRectangle;overflow=hidden;connectable=0;fillColor=none;top=0;left=0;bottom=0;right=0;" vertex="1" parent="g749_msIezuKp8OIKfwZ-56">
          <mxGeometry width="30" height="30" as="geometry" />
        </mxCell>
        <mxCell id="g749_msIezuKp8OIKfwZ-58" value="`id` int(11) NOT NULL AUTO_INCREMENT COMMENT &#39;主键id&#39;" style="shape=partialRectangle;overflow=hidden;connectable=0;fillColor=none;top=0;left=0;bottom=0;right=0;align=left;spacingLeft=6;" vertex="1" parent="g749_msIezuKp8OIKfwZ-56">
          <mxGeometry x="30" width="290" height="30" as="geometry" />
        </mxCell>
        <mxCell id="g749_msIezuKp8OIKfwZ-59" value="" style="shape=partialRectangle;collapsible=0;dropTarget=0;pointerEvents=0;fillColor=none;points=[[0,0.5],[1,0.5]];portConstraint=eastwest;top=0;left=0;right=0;bottom=0;" vertex="1" parent="g749_msIezuKp8OIKfwZ-55">
          <mxGeometry y="60" width="320" height="30" as="geometry" />
        </mxCell>
        <mxCell id="g749_msIezuKp8OIKfwZ-60" value="" style="shape=partialRectangle;overflow=hidden;connectable=0;fillColor=none;top=0;left=0;bottom=0;right=0;" vertex="1" parent="g749_msIezuKp8OIKfwZ-59">
          <mxGeometry width="30" height="30" as="geometry" />
        </mxCell>
        <mxCell id="g749_msIezuKp8OIKfwZ-61" value="`admin_id` int(11) DEFAULT NULL COMMENT &#39;管理员id&#39;" style="shape=partialRectangle;overflow=hidden;connectable=0;fillColor=none;top=0;left=0;bottom=0;right=0;align=left;spacingLeft=6;" vertex="1" parent="g749_msIezuKp8OIKfwZ-59">
          <mxGeometry x="30" width="290" height="30" as="geometry" />
        </mxCell>
        <mxCell id="g749_msIezuKp8OIKfwZ-62" value="" style="shape=partialRectangle;collapsible=0;dropTarget=0;pointerEvents=0;fillColor=none;points=[[0,0.5],[1,0.5]];portConstraint=eastwest;top=0;left=0;right=0;bottom=0;" vertex="1" parent="g749_msIezuKp8OIKfwZ-55">
          <mxGeometry y="90" width="320" height="30" as="geometry" />
        </mxCell>
        <mxCell id="g749_msIezuKp8OIKfwZ-63" value="" style="shape=partialRectangle;overflow=hidden;connectable=0;fillColor=none;top=0;left=0;bottom=0;right=0;" vertex="1" parent="g749_msIezuKp8OIKfwZ-62">
          <mxGeometry width="30" height="30" as="geometry" />
        </mxCell>
        <mxCell id="g749_msIezuKp8OIKfwZ-64" value="`role_id` int(11) DEFAULT NULL COMMENT &#39;角色id&#39;" style="shape=partialRectangle;overflow=hidden;connectable=0;fillColor=none;top=0;left=0;bottom=0;right=0;align=left;spacingLeft=6;" vertex="1" parent="g749_msIezuKp8OIKfwZ-62">
          <mxGeometry x="30" width="290" height="30" as="geometry" />
        </mxCell>
        <mxCell id="g749_msIezuKp8OIKfwZ-65" value="`admin_station` (管理员和站所关系表)" style="shape=table;startSize=30;container=1;collapsible=1;childLayout=tableLayout;fixedRows=1;rowLines=0;fontStyle=1;align=center;resizeLast=1;" vertex="1" parent="1">
          <mxGeometry x="-2400" y="550" width="320" height="130" as="geometry" />
        </mxCell>
        <mxCell id="g749_msIezuKp8OIKfwZ-66" value="" style="shape=partialRectangle;collapsible=0;dropTarget=0;pointerEvents=0;fillColor=none;points=[[0,0.5],[1,0.5]];portConstraint=eastwest;top=0;left=0;right=0;bottom=0;" vertex="1" parent="g749_msIezuKp8OIKfwZ-65">
          <mxGeometry y="30" width="320" height="30" as="geometry" />
        </mxCell>
        <mxCell id="g749_msIezuKp8OIKfwZ-67" value="" style="shape=partialRectangle;overflow=hidden;connectable=0;fillColor=none;top=0;left=0;bottom=0;right=0;" vertex="1" parent="g749_msIezuKp8OIKfwZ-66">
          <mxGeometry width="30" height="30" as="geometry" />
        </mxCell>
        <mxCell id="g749_msIezuKp8OIKfwZ-68" value="`id` int(11) unsigned NOT NULL AUTO_INCREMENT COMMENT &#39;主键id&#39;" style="shape=partialRectangle;overflow=hidden;connectable=0;fillColor=none;top=0;left=0;bottom=0;right=0;align=left;spacingLeft=6;" vertex="1" parent="g749_msIezuKp8OIKfwZ-66">
          <mxGeometry x="30" width="290" height="30" as="geometry" />
        </mxCell>
        <mxCell id="g749_msIezuKp8OIKfwZ-69" value="" style="shape=partialRectangle;collapsible=0;dropTarget=0;pointerEvents=0;fillColor=none;points=[[0,0.5],[1,0.5]];portConstraint=eastwest;top=0;left=0;right=0;bottom=0;" vertex="1" parent="g749_msIezuKp8OIKfwZ-65">
          <mxGeometry y="60" width="320" height="30" as="geometry" />
        </mxCell>
        <mxCell id="g749_msIezuKp8OIKfwZ-70" value="" style="shape=partialRectangle;overflow=hidden;connectable=0;fillColor=none;top=0;left=0;bottom=0;right=0;" vertex="1" parent="g749_msIezuKp8OIKfwZ-69">
          <mxGeometry width="30" height="30" as="geometry" />
        </mxCell>
        <mxCell id="g749_msIezuKp8OIKfwZ-71" value="`admin_id` int(11) DEFAULT NULL COMMENT &#39;管理员id&#39;" style="shape=partialRectangle;overflow=hidden;connectable=0;fillColor=none;top=0;left=0;bottom=0;right=0;align=left;spacingLeft=6;" vertex="1" parent="g749_msIezuKp8OIKfwZ-69">
          <mxGeometry x="30" width="290" height="30" as="geometry" />
        </mxCell>
        <mxCell id="g749_msIezuKp8OIKfwZ-72" value="" style="shape=partialRectangle;collapsible=0;dropTarget=0;pointerEvents=0;fillColor=none;points=[[0,0.5],[1,0.5]];portConstraint=eastwest;top=0;left=0;right=0;bottom=0;" vertex="1" parent="g749_msIezuKp8OIKfwZ-65">
          <mxGeometry y="90" width="320" height="30" as="geometry" />
        </mxCell>
        <mxCell id="g749_msIezuKp8OIKfwZ-73" value="" style="shape=partialRectangle;overflow=hidden;connectable=0;fillColor=none;top=0;left=0;bottom=0;right=0;" vertex="1" parent="g749_msIezuKp8OIKfwZ-72">
          <mxGeometry width="30" height="30" as="geometry" />
        </mxCell>
        <mxCell id="g749_msIezuKp8OIKfwZ-74" value="`station_Id` int(11) DEFAULT NULL COMMENT &#39;站所id&#39;" style="shape=partialRectangle;overflow=hidden;connectable=0;fillColor=none;top=0;left=0;bottom=0;right=0;align=left;spacingLeft=6;" vertex="1" parent="g749_msIezuKp8OIKfwZ-72">
          <mxGeometry x="30" width="290" height="30" as="geometry" />
        </mxCell>
        <mxCell id="g749_msIezuKp8OIKfwZ-75" value="`camera` (摄像机表)" style="shape=table;startSize=30;container=1;collapsible=1;childLayout=tableLayout;fixedRows=1;rowLines=0;fontStyle=1;align=center;resizeLast=1;" vertex="1" parent="1">
          <mxGeometry x="-1890" y="315" width="490" height="400" as="geometry" />
        </mxCell>
        <mxCell id="g749_msIezuKp8OIKfwZ-76" value="" style="shape=partialRectangle;collapsible=0;dropTarget=0;pointerEvents=0;fillColor=none;points=[[0,0.5],[1,0.5]];portConstraint=eastwest;top=0;left=0;right=0;bottom=0;" vertex="1" parent="g749_msIezuKp8OIKfwZ-75">
          <mxGeometry y="30" width="490" height="30" as="geometry" />
        </mxCell>
        <mxCell id="g749_msIezuKp8OIKfwZ-77" value="" style="shape=partialRectangle;overflow=hidden;connectable=0;fillColor=none;top=0;left=0;bottom=0;right=0;" vertex="1" parent="g749_msIezuKp8OIKfwZ-76">
          <mxGeometry width="30" height="30" as="geometry" />
        </mxCell>
        <mxCell id="g749_msIezuKp8OIKfwZ-78" value="`id` int(11) unsigned NOT NULL AUTO_INCREMENT COMMENT &#39;主键id&#39;" style="shape=partialRectangle;overflow=hidden;connectable=0;fillColor=none;top=0;left=0;bottom=0;right=0;align=left;spacingLeft=6;" vertex="1" parent="g749_msIezuKp8OIKfwZ-76">
          <mxGeometry x="30" width="460" height="30" as="geometry" />
        </mxCell>
        <mxCell id="g749_msIezuKp8OIKfwZ-79" value="" style="shape=partialRectangle;collapsible=0;dropTarget=0;pointerEvents=0;fillColor=none;points=[[0,0.5],[1,0.5]];portConstraint=eastwest;top=0;left=0;right=0;bottom=0;" vertex="1" parent="g749_msIezuKp8OIKfwZ-75">
          <mxGeometry y="60" width="490" height="30" as="geometry" />
        </mxCell>
        <mxCell id="g749_msIezuKp8OIKfwZ-80" value="" style="shape=partialRectangle;overflow=hidden;connectable=0;fillColor=none;top=0;left=0;bottom=0;right=0;" vertex="1" parent="g749_msIezuKp8OIKfwZ-79">
          <mxGeometry width="30" height="30" as="geometry" />
        </mxCell>
        <mxCell id="g749_msIezuKp8OIKfwZ-81" value="`ip` varchar(30) DEFAULT NULL COMMENT &#39;相机ip地址&#39;" style="shape=partialRectangle;overflow=hidden;connectable=0;fillColor=none;top=0;left=0;bottom=0;right=0;align=left;spacingLeft=6;" vertex="1" parent="g749_msIezuKp8OIKfwZ-79">
          <mxGeometry x="30" width="460" height="30" as="geometry" />
        </mxCell>
        <mxCell id="g749_msIezuKp8OIKfwZ-82" value="" style="shape=partialRectangle;collapsible=0;dropTarget=0;pointerEvents=0;fillColor=none;points=[[0,0.5],[1,0.5]];portConstraint=eastwest;top=0;left=0;right=0;bottom=0;" vertex="1" parent="g749_msIezuKp8OIKfwZ-75">
          <mxGeometry y="90" width="490" height="30" as="geometry" />
        </mxCell>
        <mxCell id="g749_msIezuKp8OIKfwZ-83" value="" style="shape=partialRectangle;overflow=hidden;connectable=0;fillColor=none;top=0;left=0;bottom=0;right=0;" vertex="1" parent="g749_msIezuKp8OIKfwZ-82">
          <mxGeometry width="30" height="30" as="geometry" />
        </mxCell>
        <mxCell id="g749_msIezuKp8OIKfwZ-84" value="`name` varchar(50) DEFAULT NULL COMMENT &#39;相机名称&#39;" style="shape=partialRectangle;overflow=hidden;connectable=0;fillColor=none;top=0;left=0;bottom=0;right=0;align=left;spacingLeft=6;" vertex="1" parent="g749_msIezuKp8OIKfwZ-82">
          <mxGeometry x="30" width="460" height="30" as="geometry" />
        </mxCell>
        <mxCell id="g749_msIezuKp8OIKfwZ-85" value="" style="shape=partialRectangle;collapsible=0;dropTarget=0;pointerEvents=0;fillColor=none;points=[[0,0.5],[1,0.5]];portConstraint=eastwest;top=0;left=0;right=0;bottom=0;" vertex="1" parent="g749_msIezuKp8OIKfwZ-75">
          <mxGeometry y="120" width="490" height="30" as="geometry" />
        </mxCell>
        <mxCell id="g749_msIezuKp8OIKfwZ-86" value="" style="shape=partialRectangle;overflow=hidden;connectable=0;fillColor=none;top=0;left=0;bottom=0;right=0;" vertex="1" parent="g749_msIezuKp8OIKfwZ-85">
          <mxGeometry width="30" height="30" as="geometry" />
        </mxCell>
        <mxCell id="g749_msIezuKp8OIKfwZ-87" value="`account` varchar(30) DEFAULT NULL COMMENT &#39;相机账号&#39;" style="shape=partialRectangle;overflow=hidden;connectable=0;fillColor=none;top=0;left=0;bottom=0;right=0;align=left;spacingLeft=6;" vertex="1" parent="g749_msIezuKp8OIKfwZ-85">
          <mxGeometry x="30" width="460" height="30" as="geometry" />
        </mxCell>
        <mxCell id="g749_msIezuKp8OIKfwZ-88" value="" style="shape=partialRectangle;collapsible=0;dropTarget=0;pointerEvents=0;fillColor=none;points=[[0,0.5],[1,0.5]];portConstraint=eastwest;top=0;left=0;right=0;bottom=0;" vertex="1" parent="g749_msIezuKp8OIKfwZ-75">
          <mxGeometry y="150" width="490" height="30" as="geometry" />
        </mxCell>
        <mxCell id="g749_msIezuKp8OIKfwZ-89" value="" style="shape=partialRectangle;overflow=hidden;connectable=0;fillColor=none;top=0;left=0;bottom=0;right=0;" vertex="1" parent="g749_msIezuKp8OIKfwZ-88">
          <mxGeometry width="30" height="30" as="geometry" />
        </mxCell>
        <mxCell id="g749_msIezuKp8OIKfwZ-90" value="`pwd` varchar(50) DEFAULT NULL COMMENT &#39;相机密码&#39;" style="shape=partialRectangle;overflow=hidden;connectable=0;fillColor=none;top=0;left=0;bottom=0;right=0;align=left;spacingLeft=6;" vertex="1" parent="g749_msIezuKp8OIKfwZ-88">
          <mxGeometry x="30" width="460" height="30" as="geometry" />
        </mxCell>
        <mxCell id="g749_msIezuKp8OIKfwZ-91" value="" style="shape=partialRectangle;collapsible=0;dropTarget=0;pointerEvents=0;fillColor=none;points=[[0,0.5],[1,0.5]];portConstraint=eastwest;top=0;left=0;right=0;bottom=0;" vertex="1" parent="g749_msIezuKp8OIKfwZ-75">
          <mxGeometry y="180" width="490" height="30" as="geometry" />
        </mxCell>
        <mxCell id="g749_msIezuKp8OIKfwZ-92" value="" style="shape=partialRectangle;overflow=hidden;connectable=0;fillColor=none;top=0;left=0;bottom=0;right=0;" vertex="1" parent="g749_msIezuKp8OIKfwZ-91">
          <mxGeometry width="30" height="30" as="geometry" />
        </mxCell>
        <mxCell id="g749_msIezuKp8OIKfwZ-93" value="`type` int(11) DEFAULT NULL COMMENT &#39;相机类型 相机类型 红外:1,可见光:2&#39;" style="shape=partialRectangle;overflow=hidden;connectable=0;fillColor=none;top=0;left=0;bottom=0;right=0;align=left;spacingLeft=6;" vertex="1" parent="g749_msIezuKp8OIKfwZ-91">
          <mxGeometry x="30" width="460" height="30" as="geometry" />
        </mxCell>
        <mxCell id="g749_msIezuKp8OIKfwZ-94" value="" style="shape=partialRectangle;collapsible=0;dropTarget=0;pointerEvents=0;fillColor=none;points=[[0,0.5],[1,0.5]];portConstraint=eastwest;top=0;left=0;right=0;bottom=0;" vertex="1" parent="g749_msIezuKp8OIKfwZ-75">
          <mxGeometry y="210" width="490" height="30" as="geometry" />
        </mxCell>
        <mxCell id="g749_msIezuKp8OIKfwZ-95" value="" style="shape=partialRectangle;overflow=hidden;connectable=0;fillColor=none;top=0;left=0;bottom=0;right=0;" vertex="1" parent="g749_msIezuKp8OIKfwZ-94">
          <mxGeometry width="30" height="30" as="geometry" />
        </mxCell>
        <mxCell id="g749_msIezuKp8OIKfwZ-96" value="`play_url` varchar(200) DEFAULT NULL COMMENT &#39;码流播放地址&#39;" style="shape=partialRectangle;overflow=hidden;connectable=0;fillColor=none;top=0;left=0;bottom=0;right=0;align=left;spacingLeft=6;" vertex="1" parent="g749_msIezuKp8OIKfwZ-94">
          <mxGeometry x="30" width="460" height="30" as="geometry" />
        </mxCell>
        <mxCell id="g749_msIezuKp8OIKfwZ-97" value="" style="shape=partialRectangle;collapsible=0;dropTarget=0;pointerEvents=0;fillColor=none;points=[[0,0.5],[1,0.5]];portConstraint=eastwest;top=0;left=0;right=0;bottom=0;" vertex="1" parent="g749_msIezuKp8OIKfwZ-75">
          <mxGeometry y="240" width="490" height="30" as="geometry" />
        </mxCell>
        <mxCell id="g749_msIezuKp8OIKfwZ-98" value="" style="shape=partialRectangle;overflow=hidden;connectable=0;fillColor=none;top=0;left=0;bottom=0;right=0;" vertex="1" parent="g749_msIezuKp8OIKfwZ-97">
          <mxGeometry width="30" height="30" as="geometry" />
        </mxCell>
        <mxCell id="g749_msIezuKp8OIKfwZ-99" value="`rtsp_url` varchar(200) DEFAULT NULL COMMENT &#39;rtsp地址&#39;" style="shape=partialRectangle;overflow=hidden;connectable=0;fillColor=none;top=0;left=0;bottom=0;right=0;align=left;spacingLeft=6;" vertex="1" parent="g749_msIezuKp8OIKfwZ-97">
          <mxGeometry x="30" width="460" height="30" as="geometry" />
        </mxCell>
        <mxCell id="g749_msIezuKp8OIKfwZ-100" value="" style="shape=partialRectangle;collapsible=0;dropTarget=0;pointerEvents=0;fillColor=none;points=[[0,0.5],[1,0.5]];portConstraint=eastwest;top=0;left=0;right=0;bottom=0;" vertex="1" parent="g749_msIezuKp8OIKfwZ-75">
          <mxGeometry y="270" width="490" height="30" as="geometry" />
        </mxCell>
        <mxCell id="g749_msIezuKp8OIKfwZ-101" value="" style="shape=partialRectangle;overflow=hidden;connectable=0;fillColor=none;top=0;left=0;bottom=0;right=0;" vertex="1" parent="g749_msIezuKp8OIKfwZ-100">
          <mxGeometry width="30" height="30" as="geometry" />
        </mxCell>
        <mxCell id="g749_msIezuKp8OIKfwZ-102" value="`channel` int(11) DEFAULT NULL COMMENT &#39;通道号&#39;" style="shape=partialRectangle;overflow=hidden;connectable=0;fillColor=none;top=0;left=0;bottom=0;right=0;align=left;spacingLeft=6;" vertex="1" parent="g749_msIezuKp8OIKfwZ-100">
          <mxGeometry x="30" width="460" height="30" as="geometry" />
        </mxCell>
        <mxCell id="g749_msIezuKp8OIKfwZ-103" value="" style="shape=partialRectangle;collapsible=0;dropTarget=0;pointerEvents=0;fillColor=none;points=[[0,0.5],[1,0.5]];portConstraint=eastwest;top=0;left=0;right=0;bottom=0;" vertex="1" parent="g749_msIezuKp8OIKfwZ-75">
          <mxGeometry y="300" width="490" height="30" as="geometry" />
        </mxCell>
        <mxCell id="g749_msIezuKp8OIKfwZ-104" value="" style="shape=partialRectangle;overflow=hidden;connectable=0;fillColor=none;top=0;left=0;bottom=0;right=0;" vertex="1" parent="g749_msIezuKp8OIKfwZ-103">
          <mxGeometry width="30" height="30" as="geometry" />
        </mxCell>
        <mxCell id="g749_msIezuKp8OIKfwZ-105" value="`station_id` int(11) DEFAULT NULL COMMENT &#39;站所id&#39;" style="shape=partialRectangle;overflow=hidden;connectable=0;fillColor=none;top=0;left=0;bottom=0;right=0;align=left;spacingLeft=6;" vertex="1" parent="g749_msIezuKp8OIKfwZ-103">
          <mxGeometry x="30" width="460" height="30" as="geometry" />
        </mxCell>
        <mxCell id="g749_msIezuKp8OIKfwZ-106" value="" style="shape=partialRectangle;collapsible=0;dropTarget=0;pointerEvents=0;fillColor=none;points=[[0,0.5],[1,0.5]];portConstraint=eastwest;top=0;left=0;right=0;bottom=0;" vertex="1" parent="g749_msIezuKp8OIKfwZ-75">
          <mxGeometry y="330" width="490" height="30" as="geometry" />
        </mxCell>
        <mxCell id="g749_msIezuKp8OIKfwZ-107" value="" style="shape=partialRectangle;overflow=hidden;connectable=0;fillColor=none;top=0;left=0;bottom=0;right=0;" vertex="1" parent="g749_msIezuKp8OIKfwZ-106">
          <mxGeometry width="30" height="30" as="geometry" />
        </mxCell>
        <mxCell id="g749_msIezuKp8OIKfwZ-108" value="`create_time` datetime DEFAULT NULL COMMENT &#39;创建时间&#39;" style="shape=partialRectangle;overflow=hidden;connectable=0;fillColor=none;top=0;left=0;bottom=0;right=0;align=left;spacingLeft=6;" vertex="1" parent="g749_msIezuKp8OIKfwZ-106">
          <mxGeometry x="30" width="460" height="30" as="geometry" />
        </mxCell>
        <mxCell id="g749_msIezuKp8OIKfwZ-109" value="" style="shape=partialRectangle;collapsible=0;dropTarget=0;pointerEvents=0;fillColor=none;points=[[0,0.5],[1,0.5]];portConstraint=eastwest;top=0;left=0;right=0;bottom=0;" vertex="1" parent="g749_msIezuKp8OIKfwZ-75">
          <mxGeometry y="360" width="490" height="30" as="geometry" />
        </mxCell>
        <mxCell id="g749_msIezuKp8OIKfwZ-110" value="" style="shape=partialRectangle;overflow=hidden;connectable=0;fillColor=none;top=0;left=0;bottom=0;right=0;" vertex="1" parent="g749_msIezuKp8OIKfwZ-109">
          <mxGeometry width="30" height="30" as="geometry" />
        </mxCell>
        <mxCell id="g749_msIezuKp8OIKfwZ-111" value="`update_time` datetime DEFAULT NULL COMMENT &#39;更新时间&#39;" style="shape=partialRectangle;overflow=hidden;connectable=0;fillColor=none;top=0;left=0;bottom=0;right=0;align=left;spacingLeft=6;" vertex="1" parent="g749_msIezuKp8OIKfwZ-109">
          <mxGeometry x="30" width="460" height="30" as="geometry" />
        </mxCell>
        <mxCell id="g749_msIezuKp8OIKfwZ-112" value="`cron` (定时任务配置表)" style="shape=table;startSize=30;container=1;collapsible=1;childLayout=tableLayout;fixedRows=1;rowLines=0;fontStyle=1;align=center;resizeLast=1;" vertex="1" parent="1">
          <mxGeometry x="-1330" y="240" width="320" height="190" as="geometry" />
        </mxCell>
        <mxCell id="g749_msIezuKp8OIKfwZ-113" value="" style="shape=partialRectangle;collapsible=0;dropTarget=0;pointerEvents=0;fillColor=none;points=[[0,0.5],[1,0.5]];portConstraint=eastwest;top=0;left=0;right=0;bottom=0;" vertex="1" parent="g749_msIezuKp8OIKfwZ-112">
          <mxGeometry y="30" width="320" height="30" as="geometry" />
        </mxCell>
        <mxCell id="g749_msIezuKp8OIKfwZ-114" value="" style="shape=partialRectangle;overflow=hidden;connectable=0;fillColor=none;top=0;left=0;bottom=0;right=0;" vertex="1" parent="g749_msIezuKp8OIKfwZ-113">
          <mxGeometry width="30" height="30" as="geometry" />
        </mxCell>
        <mxCell id="g749_msIezuKp8OIKfwZ-115" value="`id` int(11) unsigned NOT NULL AUTO_INCREMENT COMMENT &#39;主键id&#39;" style="shape=partialRectangle;overflow=hidden;connectable=0;fillColor=none;top=0;left=0;bottom=0;right=0;align=left;spacingLeft=6;" vertex="1" parent="g749_msIezuKp8OIKfwZ-113">
          <mxGeometry x="30" width="290" height="30" as="geometry" />
        </mxCell>
        <mxCell id="g749_msIezuKp8OIKfwZ-116" value="" style="shape=partialRectangle;collapsible=0;dropTarget=0;pointerEvents=0;fillColor=none;points=[[0,0.5],[1,0.5]];portConstraint=eastwest;top=0;left=0;right=0;bottom=0;" vertex="1" parent="g749_msIezuKp8OIKfwZ-112">
          <mxGeometry y="60" width="320" height="30" as="geometry" />
        </mxCell>
        <mxCell id="g749_msIezuKp8OIKfwZ-117" value="" style="shape=partialRectangle;overflow=hidden;connectable=0;fillColor=none;top=0;left=0;bottom=0;right=0;" vertex="1" parent="g749_msIezuKp8OIKfwZ-116">
          <mxGeometry width="30" height="30" as="geometry" />
        </mxCell>
        <mxCell id="g749_msIezuKp8OIKfwZ-118" value="`cron_key` varchar(128) DEFAULT &#39;&#39; COMMENT &#39;定时任务完整名称类名&#39;" style="shape=partialRectangle;overflow=hidden;connectable=0;fillColor=none;top=0;left=0;bottom=0;right=0;align=left;spacingLeft=6;" vertex="1" parent="g749_msIezuKp8OIKfwZ-116">
          <mxGeometry x="30" width="290" height="30" as="geometry" />
        </mxCell>
        <mxCell id="g749_msIezuKp8OIKfwZ-119" value="" style="shape=partialRectangle;collapsible=0;dropTarget=0;pointerEvents=0;fillColor=none;points=[[0,0.5],[1,0.5]];portConstraint=eastwest;top=0;left=0;right=0;bottom=0;" vertex="1" parent="g749_msIezuKp8OIKfwZ-112">
          <mxGeometry y="90" width="320" height="30" as="geometry" />
        </mxCell>
        <mxCell id="g749_msIezuKp8OIKfwZ-120" value="" style="shape=partialRectangle;overflow=hidden;connectable=0;fillColor=none;top=0;left=0;bottom=0;right=0;" vertex="1" parent="g749_msIezuKp8OIKfwZ-119">
          <mxGeometry width="30" height="30" as="geometry" />
        </mxCell>
        <mxCell id="g749_msIezuKp8OIKfwZ-121" value="`cron_expression` varchar(20) DEFAULT NULL COMMENT &#39;cron表达式&#39;" style="shape=partialRectangle;overflow=hidden;connectable=0;fillColor=none;top=0;left=0;bottom=0;right=0;align=left;spacingLeft=6;" vertex="1" parent="g749_msIezuKp8OIKfwZ-119">
          <mxGeometry x="30" width="290" height="30" as="geometry" />
        </mxCell>
        <mxCell id="g749_msIezuKp8OIKfwZ-122" value="" style="shape=partialRectangle;collapsible=0;dropTarget=0;pointerEvents=0;fillColor=none;points=[[0,0.5],[1,0.5]];portConstraint=eastwest;top=0;left=0;right=0;bottom=0;" vertex="1" parent="g749_msIezuKp8OIKfwZ-112">
          <mxGeometry y="120" width="320" height="30" as="geometry" />
        </mxCell>
        <mxCell id="g749_msIezuKp8OIKfwZ-123" value="" style="shape=partialRectangle;overflow=hidden;connectable=0;fillColor=none;top=0;left=0;bottom=0;right=0;" vertex="1" parent="g749_msIezuKp8OIKfwZ-122">
          <mxGeometry width="30" height="30" as="geometry" />
        </mxCell>
        <mxCell id="g749_msIezuKp8OIKfwZ-124" value="`task_description` varchar(100) DEFAULT NULL COMMENT &#39;任务描述&#39;" style="shape=partialRectangle;overflow=hidden;connectable=0;fillColor=none;top=0;left=0;bottom=0;right=0;align=left;spacingLeft=6;" vertex="1" parent="g749_msIezuKp8OIKfwZ-122">
          <mxGeometry x="30" width="290" height="30" as="geometry" />
        </mxCell>
        <mxCell id="g749_msIezuKp8OIKfwZ-125" value="" style="shape=partialRectangle;collapsible=0;dropTarget=0;pointerEvents=0;fillColor=none;points=[[0,0.5],[1,0.5]];portConstraint=eastwest;top=0;left=0;right=0;bottom=0;" vertex="1" parent="g749_msIezuKp8OIKfwZ-112">
          <mxGeometry y="150" width="320" height="30" as="geometry" />
        </mxCell>
        <mxCell id="g749_msIezuKp8OIKfwZ-126" value="" style="shape=partialRectangle;overflow=hidden;connectable=0;fillColor=none;top=0;left=0;bottom=0;right=0;" vertex="1" parent="g749_msIezuKp8OIKfwZ-125">
          <mxGeometry width="30" height="30" as="geometry" />
        </mxCell>
        <mxCell id="g749_msIezuKp8OIKfwZ-127" value="`status` int(1) DEFAULT NULL COMMENT &#39;状态,1:正常;2:停用&#39;" style="shape=partialRectangle;overflow=hidden;connectable=0;fillColor=none;top=0;left=0;bottom=0;right=0;align=left;spacingLeft=6;" vertex="1" parent="g749_msIezuKp8OIKfwZ-125">
          <mxGeometry x="30" width="290" height="30" as="geometry" />
        </mxCell>
        <mxCell id="g749_msIezuKp8OIKfwZ-128" value="`device` (业务设备表)" style="shape=table;startSize=30;container=1;collapsible=1;childLayout=tableLayout;fixedRows=1;rowLines=0;fontStyle=1;align=center;resizeLast=1;" vertex="1" parent="1">
          <mxGeometry x="-1890" y="770" width="450" height="280" as="geometry" />
        </mxCell>
        <mxCell id="g749_msIezuKp8OIKfwZ-129" value="" style="shape=partialRectangle;collapsible=0;dropTarget=0;pointerEvents=0;fillColor=none;points=[[0,0.5],[1,0.5]];portConstraint=eastwest;top=0;left=0;right=0;bottom=0;" vertex="1" parent="g749_msIezuKp8OIKfwZ-128">
          <mxGeometry y="30" width="450" height="30" as="geometry" />
        </mxCell>
        <mxCell id="g749_msIezuKp8OIKfwZ-130" value="" style="shape=partialRectangle;overflow=hidden;connectable=0;fillColor=none;top=0;left=0;bottom=0;right=0;" vertex="1" parent="g749_msIezuKp8OIKfwZ-129">
          <mxGeometry width="30" height="30" as="geometry" />
        </mxCell>
        <mxCell id="g749_msIezuKp8OIKfwZ-131" value="`id` int(11) unsigned NOT NULL AUTO_INCREMENT COMMENT &#39;主键id&#39;" style="shape=partialRectangle;overflow=hidden;connectable=0;fillColor=none;top=0;left=0;bottom=0;right=0;align=left;spacingLeft=6;" vertex="1" parent="g749_msIezuKp8OIKfwZ-129">
          <mxGeometry x="30" width="420" height="30" as="geometry" />
        </mxCell>
        <mxCell id="g749_msIezuKp8OIKfwZ-132" value="" style="shape=partialRectangle;collapsible=0;dropTarget=0;pointerEvents=0;fillColor=none;points=[[0,0.5],[1,0.5]];portConstraint=eastwest;top=0;left=0;right=0;bottom=0;" vertex="1" parent="g749_msIezuKp8OIKfwZ-128">
          <mxGeometry y="60" width="450" height="30" as="geometry" />
        </mxCell>
        <mxCell id="g749_msIezuKp8OIKfwZ-133" value="" style="shape=partialRectangle;overflow=hidden;connectable=0;fillColor=none;top=0;left=0;bottom=0;right=0;" vertex="1" parent="g749_msIezuKp8OIKfwZ-132">
          <mxGeometry width="30" height="30" as="geometry" />
        </mxCell>
        <mxCell id="g749_msIezuKp8OIKfwZ-134" value="`sn` varchar(100) DEFAULT NULL COMMENT &#39;设备编号&#39;" style="shape=partialRectangle;overflow=hidden;connectable=0;fillColor=none;top=0;left=0;bottom=0;right=0;align=left;spacingLeft=6;" vertex="1" parent="g749_msIezuKp8OIKfwZ-132">
          <mxGeometry x="30" width="420" height="30" as="geometry" />
        </mxCell>
        <mxCell id="g749_msIezuKp8OIKfwZ-135" value="" style="shape=partialRectangle;collapsible=0;dropTarget=0;pointerEvents=0;fillColor=none;points=[[0,0.5],[1,0.5]];portConstraint=eastwest;top=0;left=0;right=0;bottom=0;" vertex="1" parent="g749_msIezuKp8OIKfwZ-128">
          <mxGeometry y="90" width="450" height="30" as="geometry" />
        </mxCell>
        <mxCell id="g749_msIezuKp8OIKfwZ-136" value="" style="shape=partialRectangle;overflow=hidden;connectable=0;fillColor=none;top=0;left=0;bottom=0;right=0;" vertex="1" parent="g749_msIezuKp8OIKfwZ-135">
          <mxGeometry width="30" height="30" as="geometry" />
        </mxCell>
        <mxCell id="g749_msIezuKp8OIKfwZ-137" value="`name` varchar(100) DEFAULT NULL COMMENT &#39;设备名称&#39;" style="shape=partialRectangle;overflow=hidden;connectable=0;fillColor=none;top=0;left=0;bottom=0;right=0;align=left;spacingLeft=6;" vertex="1" parent="g749_msIezuKp8OIKfwZ-135">
          <mxGeometry x="30" width="420" height="30" as="geometry" />
        </mxCell>
        <mxCell id="g749_msIezuKp8OIKfwZ-138" value="" style="shape=partialRectangle;collapsible=0;dropTarget=0;pointerEvents=0;fillColor=none;points=[[0,0.5],[1,0.5]];portConstraint=eastwest;top=0;left=0;right=0;bottom=0;" vertex="1" parent="g749_msIezuKp8OIKfwZ-128">
          <mxGeometry y="120" width="450" height="30" as="geometry" />
        </mxCell>
        <mxCell id="g749_msIezuKp8OIKfwZ-139" value="" style="shape=partialRectangle;overflow=hidden;connectable=0;fillColor=none;top=0;left=0;bottom=0;right=0;" vertex="1" parent="g749_msIezuKp8OIKfwZ-138">
          <mxGeometry width="30" height="30" as="geometry" />
        </mxCell>
        <mxCell id="g749_msIezuKp8OIKfwZ-140" value="`device_type_id` int(11) DEFAULT NULL COMMENT &#39;设备类型id&#39;" style="shape=partialRectangle;overflow=hidden;connectable=0;fillColor=none;top=0;left=0;bottom=0;right=0;align=left;spacingLeft=6;" vertex="1" parent="g749_msIezuKp8OIKfwZ-138">
          <mxGeometry x="30" width="420" height="30" as="geometry" />
        </mxCell>
        <mxCell id="g749_msIezuKp8OIKfwZ-141" value="" style="shape=partialRectangle;collapsible=0;dropTarget=0;pointerEvents=0;fillColor=none;points=[[0,0.5],[1,0.5]];portConstraint=eastwest;top=0;left=0;right=0;bottom=0;" vertex="1" parent="g749_msIezuKp8OIKfwZ-128">
          <mxGeometry y="150" width="450" height="30" as="geometry" />
        </mxCell>
        <mxCell id="g749_msIezuKp8OIKfwZ-142" value="" style="shape=partialRectangle;overflow=hidden;connectable=0;fillColor=none;top=0;left=0;bottom=0;right=0;" vertex="1" parent="g749_msIezuKp8OIKfwZ-141">
          <mxGeometry width="30" height="30" as="geometry" />
        </mxCell>
        <mxCell id="g749_msIezuKp8OIKfwZ-143" value="`station_id` int(11) DEFAULT NULL COMMENT &#39;站所id&#39;" style="shape=partialRectangle;overflow=hidden;connectable=0;fillColor=none;top=0;left=0;bottom=0;right=0;align=left;spacingLeft=6;" vertex="1" parent="g749_msIezuKp8OIKfwZ-141">
          <mxGeometry x="30" width="420" height="30" as="geometry" />
        </mxCell>
        <mxCell id="g749_msIezuKp8OIKfwZ-144" value="" style="shape=partialRectangle;collapsible=0;dropTarget=0;pointerEvents=0;fillColor=none;points=[[0,0.5],[1,0.5]];portConstraint=eastwest;top=0;left=0;right=0;bottom=0;" vertex="1" parent="g749_msIezuKp8OIKfwZ-128">
          <mxGeometry y="180" width="450" height="30" as="geometry" />
        </mxCell>
        <mxCell id="g749_msIezuKp8OIKfwZ-145" value="" style="shape=partialRectangle;overflow=hidden;connectable=0;fillColor=none;top=0;left=0;bottom=0;right=0;" vertex="1" parent="g749_msIezuKp8OIKfwZ-144">
          <mxGeometry width="30" height="30" as="geometry" />
        </mxCell>
        <mxCell id="g749_msIezuKp8OIKfwZ-146" value="`device_catalog_Id` int(11) DEFAULT NULL COMMENT &#39;所属设备目录&#39;" style="shape=partialRectangle;overflow=hidden;connectable=0;fillColor=none;top=0;left=0;bottom=0;right=0;align=left;spacingLeft=6;" vertex="1" parent="g749_msIezuKp8OIKfwZ-144">
          <mxGeometry x="30" width="420" height="30" as="geometry" />
        </mxCell>
        <mxCell id="g749_msIezuKp8OIKfwZ-147" value="" style="shape=partialRectangle;collapsible=0;dropTarget=0;pointerEvents=0;fillColor=none;points=[[0,0.5],[1,0.5]];portConstraint=eastwest;top=0;left=0;right=0;bottom=0;" vertex="1" parent="g749_msIezuKp8OIKfwZ-128">
          <mxGeometry y="210" width="450" height="30" as="geometry" />
        </mxCell>
        <mxCell id="g749_msIezuKp8OIKfwZ-148" value="" style="shape=partialRectangle;overflow=hidden;connectable=0;fillColor=none;top=0;left=0;bottom=0;right=0;" vertex="1" parent="g749_msIezuKp8OIKfwZ-147">
          <mxGeometry width="30" height="30" as="geometry" />
        </mxCell>
        <mxCell id="g749_msIezuKp8OIKfwZ-149" value="`create_time` datetime DEFAULT NULL COMMENT &#39;创建时间&#39;" style="shape=partialRectangle;overflow=hidden;connectable=0;fillColor=none;top=0;left=0;bottom=0;right=0;align=left;spacingLeft=6;" vertex="1" parent="g749_msIezuKp8OIKfwZ-147">
          <mxGeometry x="30" width="420" height="30" as="geometry" />
        </mxCell>
        <mxCell id="g749_msIezuKp8OIKfwZ-150" value="" style="shape=partialRectangle;collapsible=0;dropTarget=0;pointerEvents=0;fillColor=none;points=[[0,0.5],[1,0.5]];portConstraint=eastwest;top=0;left=0;right=0;bottom=0;" vertex="1" parent="g749_msIezuKp8OIKfwZ-128">
          <mxGeometry y="240" width="450" height="30" as="geometry" />
        </mxCell>
        <mxCell id="g749_msIezuKp8OIKfwZ-151" value="" style="shape=partialRectangle;overflow=hidden;connectable=0;fillColor=none;top=0;left=0;bottom=0;right=0;" vertex="1" parent="g749_msIezuKp8OIKfwZ-150">
          <mxGeometry width="30" height="30" as="geometry" />
        </mxCell>
        <mxCell id="g749_msIezuKp8OIKfwZ-152" value="`update_time` datetime DEFAULT NULL COMMENT &#39;更新时间&#39;" style="shape=partialRectangle;overflow=hidden;connectable=0;fillColor=none;top=0;left=0;bottom=0;right=0;align=left;spacingLeft=6;" vertex="1" parent="g749_msIezuKp8OIKfwZ-150">
          <mxGeometry x="30" width="420" height="30" as="geometry" />
        </mxCell>
        <mxCell id="g749_msIezuKp8OIKfwZ-153" value="`device_camera` (设备和摄像机关系表)" style="shape=table;startSize=30;container=1;collapsible=1;childLayout=tableLayout;fixedRows=1;rowLines=0;fontStyle=1;align=center;resizeLast=1;" vertex="1" parent="1">
          <mxGeometry x="-1310" y="650" width="320" height="130" as="geometry" />
        </mxCell>
        <mxCell id="g749_msIezuKp8OIKfwZ-154" value="" style="shape=partialRectangle;collapsible=0;dropTarget=0;pointerEvents=0;fillColor=none;points=[[0,0.5],[1,0.5]];portConstraint=eastwest;top=0;left=0;right=0;bottom=0;" vertex="1" parent="g749_msIezuKp8OIKfwZ-153">
          <mxGeometry y="30" width="320" height="30" as="geometry" />
        </mxCell>
        <mxCell id="g749_msIezuKp8OIKfwZ-155" value="" style="shape=partialRectangle;overflow=hidden;connectable=0;fillColor=none;top=0;left=0;bottom=0;right=0;" vertex="1" parent="g749_msIezuKp8OIKfwZ-154">
          <mxGeometry width="30" height="30" as="geometry" />
        </mxCell>
        <mxCell id="g749_msIezuKp8OIKfwZ-156" value="`id` int(11) unsigned NOT NULL AUTO_INCREMENT COMMENT &#39;主键id&#39;" style="shape=partialRectangle;overflow=hidden;connectable=0;fillColor=none;top=0;left=0;bottom=0;right=0;align=left;spacingLeft=6;" vertex="1" parent="g749_msIezuKp8OIKfwZ-154">
          <mxGeometry x="30" width="290" height="30" as="geometry" />
        </mxCell>
        <mxCell id="g749_msIezuKp8OIKfwZ-157" value="" style="shape=partialRectangle;collapsible=0;dropTarget=0;pointerEvents=0;fillColor=none;points=[[0,0.5],[1,0.5]];portConstraint=eastwest;top=0;left=0;right=0;bottom=0;" vertex="1" parent="g749_msIezuKp8OIKfwZ-153">
          <mxGeometry y="60" width="320" height="30" as="geometry" />
        </mxCell>
        <mxCell id="g749_msIezuKp8OIKfwZ-158" value="" style="shape=partialRectangle;overflow=hidden;connectable=0;fillColor=none;top=0;left=0;bottom=0;right=0;" vertex="1" parent="g749_msIezuKp8OIKfwZ-157">
          <mxGeometry width="30" height="30" as="geometry" />
        </mxCell>
        <mxCell id="g749_msIezuKp8OIKfwZ-159" value="`device_id` int(11) DEFAULT NULL COMMENT &#39;设备id&#39;" style="shape=partialRectangle;overflow=hidden;connectable=0;fillColor=none;top=0;left=0;bottom=0;right=0;align=left;spacingLeft=6;" vertex="1" parent="g749_msIezuKp8OIKfwZ-157">
          <mxGeometry x="30" width="290" height="30" as="geometry" />
        </mxCell>
        <mxCell id="g749_msIezuKp8OIKfwZ-160" value="" style="shape=partialRectangle;collapsible=0;dropTarget=0;pointerEvents=0;fillColor=none;points=[[0,0.5],[1,0.5]];portConstraint=eastwest;top=0;left=0;right=0;bottom=0;" vertex="1" parent="g749_msIezuKp8OIKfwZ-153">
          <mxGeometry y="90" width="320" height="30" as="geometry" />
        </mxCell>
        <mxCell id="g749_msIezuKp8OIKfwZ-161" value="" style="shape=partialRectangle;overflow=hidden;connectable=0;fillColor=none;top=0;left=0;bottom=0;right=0;" vertex="1" parent="g749_msIezuKp8OIKfwZ-160">
          <mxGeometry width="30" height="30" as="geometry" />
        </mxCell>
        <mxCell id="g749_msIezuKp8OIKfwZ-162" value="`camera_id` int(11) DEFAULT NULL COMMENT &#39;摄像机id&#39;" style="shape=partialRectangle;overflow=hidden;connectable=0;fillColor=none;top=0;left=0;bottom=0;right=0;align=left;spacingLeft=6;" vertex="1" parent="g749_msIezuKp8OIKfwZ-160">
          <mxGeometry x="30" width="290" height="30" as="geometry" />
        </mxCell>
        <mxCell id="g749_msIezuKp8OIKfwZ-163" value="`device_catalog` (设备目录表)" style="shape=table;startSize=30;container=1;collapsible=1;childLayout=tableLayout;fixedRows=1;rowLines=0;fontStyle=1;align=center;resizeLast=1;" vertex="1" parent="1">
          <mxGeometry x="-1310" y="830" width="320" height="190" as="geometry" />
        </mxCell>
        <mxCell id="g749_msIezuKp8OIKfwZ-164" value="" style="shape=partialRectangle;collapsible=0;dropTarget=0;pointerEvents=0;fillColor=none;points=[[0,0.5],[1,0.5]];portConstraint=eastwest;top=0;left=0;right=0;bottom=0;" vertex="1" parent="g749_msIezuKp8OIKfwZ-163">
          <mxGeometry y="30" width="320" height="30" as="geometry" />
        </mxCell>
        <mxCell id="g749_msIezuKp8OIKfwZ-165" value="" style="shape=partialRectangle;overflow=hidden;connectable=0;fillColor=none;top=0;left=0;bottom=0;right=0;" vertex="1" parent="g749_msIezuKp8OIKfwZ-164">
          <mxGeometry width="30" height="30" as="geometry" />
        </mxCell>
        <mxCell id="g749_msIezuKp8OIKfwZ-166" value="`id` int(11) unsigned NOT NULL AUTO_INCREMENT COMMENT &#39;主键id&#39;" style="shape=partialRectangle;overflow=hidden;connectable=0;fillColor=none;top=0;left=0;bottom=0;right=0;align=left;spacingLeft=6;" vertex="1" parent="g749_msIezuKp8OIKfwZ-164">
          <mxGeometry x="30" width="290" height="30" as="geometry" />
        </mxCell>
        <mxCell id="g749_msIezuKp8OIKfwZ-167" value="" style="shape=partialRectangle;collapsible=0;dropTarget=0;pointerEvents=0;fillColor=none;points=[[0,0.5],[1,0.5]];portConstraint=eastwest;top=0;left=0;right=0;bottom=0;" vertex="1" parent="g749_msIezuKp8OIKfwZ-163">
          <mxGeometry y="60" width="320" height="30" as="geometry" />
        </mxCell>
        <mxCell id="g749_msIezuKp8OIKfwZ-168" value="" style="shape=partialRectangle;overflow=hidden;connectable=0;fillColor=none;top=0;left=0;bottom=0;right=0;" vertex="1" parent="g749_msIezuKp8OIKfwZ-167">
          <mxGeometry width="30" height="30" as="geometry" />
        </mxCell>
        <mxCell id="g749_msIezuKp8OIKfwZ-169" value="`name` varchar(100) DEFAULT NULL COMMENT &#39;树节点名称&#39;" style="shape=partialRectangle;overflow=hidden;connectable=0;fillColor=none;top=0;left=0;bottom=0;right=0;align=left;spacingLeft=6;" vertex="1" parent="g749_msIezuKp8OIKfwZ-167">
          <mxGeometry x="30" width="290" height="30" as="geometry" />
        </mxCell>
        <mxCell id="g749_msIezuKp8OIKfwZ-170" value="" style="shape=partialRectangle;collapsible=0;dropTarget=0;pointerEvents=0;fillColor=none;points=[[0,0.5],[1,0.5]];portConstraint=eastwest;top=0;left=0;right=0;bottom=0;" vertex="1" parent="g749_msIezuKp8OIKfwZ-163">
          <mxGeometry y="90" width="320" height="30" as="geometry" />
        </mxCell>
        <mxCell id="g749_msIezuKp8OIKfwZ-171" value="" style="shape=partialRectangle;overflow=hidden;connectable=0;fillColor=none;top=0;left=0;bottom=0;right=0;" vertex="1" parent="g749_msIezuKp8OIKfwZ-170">
          <mxGeometry width="30" height="30" as="geometry" />
        </mxCell>
        <mxCell id="g749_msIezuKp8OIKfwZ-172" value="`level` int(11) DEFAULT NULL COMMENT &#39;树节点层级&#39;" style="shape=partialRectangle;overflow=hidden;connectable=0;fillColor=none;top=0;left=0;bottom=0;right=0;align=left;spacingLeft=6;" vertex="1" parent="g749_msIezuKp8OIKfwZ-170">
          <mxGeometry x="30" width="290" height="30" as="geometry" />
        </mxCell>
        <mxCell id="g749_msIezuKp8OIKfwZ-173" value="" style="shape=partialRectangle;collapsible=0;dropTarget=0;pointerEvents=0;fillColor=none;points=[[0,0.5],[1,0.5]];portConstraint=eastwest;top=0;left=0;right=0;bottom=0;" vertex="1" parent="g749_msIezuKp8OIKfwZ-163">
          <mxGeometry y="120" width="320" height="30" as="geometry" />
        </mxCell>
        <mxCell id="g749_msIezuKp8OIKfwZ-174" value="" style="shape=partialRectangle;overflow=hidden;connectable=0;fillColor=none;top=0;left=0;bottom=0;right=0;" vertex="1" parent="g749_msIezuKp8OIKfwZ-173">
          <mxGeometry width="30" height="30" as="geometry" />
        </mxCell>
        <mxCell id="g749_msIezuKp8OIKfwZ-175" value="`parent_id` int(11) DEFAULT NULL COMMENT &#39;父级id&#39;" style="shape=partialRectangle;overflow=hidden;connectable=0;fillColor=none;top=0;left=0;bottom=0;right=0;align=left;spacingLeft=6;" vertex="1" parent="g749_msIezuKp8OIKfwZ-173">
          <mxGeometry x="30" width="290" height="30" as="geometry" />
        </mxCell>
        <mxCell id="g749_msIezuKp8OIKfwZ-176" value="" style="shape=partialRectangle;collapsible=0;dropTarget=0;pointerEvents=0;fillColor=none;points=[[0,0.5],[1,0.5]];portConstraint=eastwest;top=0;left=0;right=0;bottom=0;" vertex="1" parent="g749_msIezuKp8OIKfwZ-163">
          <mxGeometry y="150" width="320" height="30" as="geometry" />
        </mxCell>
        <mxCell id="g749_msIezuKp8OIKfwZ-177" value="" style="shape=partialRectangle;overflow=hidden;connectable=0;fillColor=none;top=0;left=0;bottom=0;right=0;" vertex="1" parent="g749_msIezuKp8OIKfwZ-176">
          <mxGeometry width="30" height="30" as="geometry" />
        </mxCell>
        <mxCell id="g749_msIezuKp8OIKfwZ-178" value="`station_id` int(11) DEFAULT NULL COMMENT &#39;站所id&#39;" style="shape=partialRectangle;overflow=hidden;connectable=0;fillColor=none;top=0;left=0;bottom=0;right=0;align=left;spacingLeft=6;" vertex="1" parent="g749_msIezuKp8OIKfwZ-176">
          <mxGeometry x="30" width="290" height="30" as="geometry" />
        </mxCell>
        <mxCell id="g749_msIezuKp8OIKfwZ-179" value="`device_relation` (设备关系表)" style="shape=table;startSize=30;container=1;collapsible=1;childLayout=tableLayout;fixedRows=1;rowLines=0;fontStyle=1;align=center;resizeLast=1;" vertex="1" parent="1">
          <mxGeometry x="440" y="170" width="320" height="160" as="geometry" />
        </mxCell>
        <mxCell id="g749_msIezuKp8OIKfwZ-180" value="" style="shape=partialRectangle;collapsible=0;dropTarget=0;pointerEvents=0;fillColor=none;points=[[0,0.5],[1,0.5]];portConstraint=eastwest;top=0;left=0;right=0;bottom=0;" vertex="1" parent="g749_msIezuKp8OIKfwZ-179">
          <mxGeometry y="30" width="320" height="30" as="geometry" />
        </mxCell>
        <mxCell id="g749_msIezuKp8OIKfwZ-181" value="" style="shape=partialRectangle;overflow=hidden;connectable=0;fillColor=none;top=0;left=0;bottom=0;right=0;" vertex="1" parent="g749_msIezuKp8OIKfwZ-180">
          <mxGeometry width="30" height="30" as="geometry" />
        </mxCell>
        <mxCell id="g749_msIezuKp8OIKfwZ-182" value="`id` int(11) unsigned NOT NULL AUTO_INCREMENT COMMENT &#39;主键id&#39;" style="shape=partialRectangle;overflow=hidden;connectable=0;fillColor=none;top=0;left=0;bottom=0;right=0;align=left;spacingLeft=6;" vertex="1" parent="g749_msIezuKp8OIKfwZ-180">
          <mxGeometry x="30" width="290" height="30" as="geometry" />
        </mxCell>
        <mxCell id="g749_msIezuKp8OIKfwZ-183" value="" style="shape=partialRectangle;collapsible=0;dropTarget=0;pointerEvents=0;fillColor=none;points=[[0,0.5],[1,0.5]];portConstraint=eastwest;top=0;left=0;right=0;bottom=0;" vertex="1" parent="g749_msIezuKp8OIKfwZ-179">
          <mxGeometry y="60" width="320" height="30" as="geometry" />
        </mxCell>
        <mxCell id="g749_msIezuKp8OIKfwZ-184" value="" style="shape=partialRectangle;overflow=hidden;connectable=0;fillColor=none;top=0;left=0;bottom=0;right=0;" vertex="1" parent="g749_msIezuKp8OIKfwZ-183">
          <mxGeometry width="30" height="30" as="geometry" />
        </mxCell>
        <mxCell id="g749_msIezuKp8OIKfwZ-185" value="`device_id` int(11) DEFAULT NULL COMMENT &#39;设备id&#39;" style="shape=partialRectangle;overflow=hidden;connectable=0;fillColor=none;top=0;left=0;bottom=0;right=0;align=left;spacingLeft=6;" vertex="1" parent="g749_msIezuKp8OIKfwZ-183">
          <mxGeometry x="30" width="290" height="30" as="geometry" />
        </mxCell>
        <mxCell id="g749_msIezuKp8OIKfwZ-186" value="" style="shape=partialRectangle;collapsible=0;dropTarget=0;pointerEvents=0;fillColor=none;points=[[0,0.5],[1,0.5]];portConstraint=eastwest;top=0;left=0;right=0;bottom=0;" vertex="1" parent="g749_msIezuKp8OIKfwZ-179">
          <mxGeometry y="90" width="320" height="30" as="geometry" />
        </mxCell>
        <mxCell id="g749_msIezuKp8OIKfwZ-187" value="" style="shape=partialRectangle;overflow=hidden;connectable=0;fillColor=none;top=0;left=0;bottom=0;right=0;" vertex="1" parent="g749_msIezuKp8OIKfwZ-186">
          <mxGeometry width="30" height="30" as="geometry" />
        </mxCell>
        <mxCell id="g749_msIezuKp8OIKfwZ-188" value="`external_device_Id` varchar(50) DEFAULT NULL COMMENT &#39;外部设备id&#39;" style="shape=partialRectangle;overflow=hidden;connectable=0;fillColor=none;top=0;left=0;bottom=0;right=0;align=left;spacingLeft=6;" vertex="1" parent="g749_msIezuKp8OIKfwZ-186">
          <mxGeometry x="30" width="290" height="30" as="geometry" />
        </mxCell>
        <mxCell id="g749_msIezuKp8OIKfwZ-189" value="" style="shape=partialRectangle;collapsible=0;dropTarget=0;pointerEvents=0;fillColor=none;points=[[0,0.5],[1,0.5]];portConstraint=eastwest;top=0;left=0;right=0;bottom=0;" vertex="1" parent="g749_msIezuKp8OIKfwZ-179">
          <mxGeometry y="120" width="320" height="30" as="geometry" />
        </mxCell>
        <mxCell id="g749_msIezuKp8OIKfwZ-190" value="" style="shape=partialRectangle;overflow=hidden;connectable=0;fillColor=none;top=0;left=0;bottom=0;right=0;" vertex="1" parent="g749_msIezuKp8OIKfwZ-189">
          <mxGeometry width="30" height="30" as="geometry" />
        </mxCell>
        <mxCell id="g749_msIezuKp8OIKfwZ-191" value="`sys_source` int(11) DEFAULT NULL COMMENT &#39;系统来源&#39;" style="shape=partialRectangle;overflow=hidden;connectable=0;fillColor=none;top=0;left=0;bottom=0;right=0;align=left;spacingLeft=6;" vertex="1" parent="g749_msIezuKp8OIKfwZ-189">
          <mxGeometry x="30" width="290" height="30" as="geometry" />
        </mxCell>
        <mxCell id="g749_msIezuKp8OIKfwZ-192" value="`device_type` (设备类型表)" style="shape=table;startSize=30;container=1;collapsible=1;childLayout=tableLayout;fixedRows=1;rowLines=0;fontStyle=1;align=center;resizeLast=1;" vertex="1" parent="1">
          <mxGeometry x="800" y="170" width="320" height="100" as="geometry" />
        </mxCell>
        <mxCell id="g749_msIezuKp8OIKfwZ-193" value="" style="shape=partialRectangle;collapsible=0;dropTarget=0;pointerEvents=0;fillColor=none;points=[[0,0.5],[1,0.5]];portConstraint=eastwest;top=0;left=0;right=0;bottom=0;" vertex="1" parent="g749_msIezuKp8OIKfwZ-192">
          <mxGeometry y="30" width="320" height="30" as="geometry" />
        </mxCell>
        <mxCell id="g749_msIezuKp8OIKfwZ-194" value="" style="shape=partialRectangle;overflow=hidden;connectable=0;fillColor=none;top=0;left=0;bottom=0;right=0;" vertex="1" parent="g749_msIezuKp8OIKfwZ-193">
          <mxGeometry width="30" height="30" as="geometry" />
        </mxCell>
        <mxCell id="g749_msIezuKp8OIKfwZ-195" value="`id` int(11) unsigned NOT NULL AUTO_INCREMENT COMMENT &#39;主键id&#39;" style="shape=partialRectangle;overflow=hidden;connectable=0;fillColor=none;top=0;left=0;bottom=0;right=0;align=left;spacingLeft=6;" vertex="1" parent="g749_msIezuKp8OIKfwZ-193">
          <mxGeometry x="30" width="290" height="30" as="geometry" />
        </mxCell>
        <mxCell id="g749_msIezuKp8OIKfwZ-196" value="" style="shape=partialRectangle;collapsible=0;dropTarget=0;pointerEvents=0;fillColor=none;points=[[0,0.5],[1,0.5]];portConstraint=eastwest;top=0;left=0;right=0;bottom=0;" vertex="1" parent="g749_msIezuKp8OIKfwZ-192">
          <mxGeometry y="60" width="320" height="30" as="geometry" />
        </mxCell>
        <mxCell id="g749_msIezuKp8OIKfwZ-197" value="" style="shape=partialRectangle;overflow=hidden;connectable=0;fillColor=none;top=0;left=0;bottom=0;right=0;" vertex="1" parent="g749_msIezuKp8OIKfwZ-196">
          <mxGeometry width="30" height="30" as="geometry" />
        </mxCell>
        <mxCell id="g749_msIezuKp8OIKfwZ-198" value="`name` varchar(100) DEFAULT NULL COMMENT &#39;设备类型名称&#39;" style="shape=partialRectangle;overflow=hidden;connectable=0;fillColor=none;top=0;left=0;bottom=0;right=0;align=left;spacingLeft=6;" vertex="1" parent="g749_msIezuKp8OIKfwZ-196">
          <mxGeometry x="30" width="290" height="30" as="geometry" />
        </mxCell>
        <mxCell id="g749_msIezuKp8OIKfwZ-199" value="`org` (组织结构表)" style="shape=table;startSize=30;container=1;collapsible=1;childLayout=tableLayout;fixedRows=1;rowLines=0;fontStyle=1;align=center;resizeLast=1;" vertex="1" parent="1">
          <mxGeometry x="1160" y="170" width="320" height="250" as="geometry" />
        </mxCell>
        <mxCell id="g749_msIezuKp8OIKfwZ-200" value="" style="shape=partialRectangle;collapsible=0;dropTarget=0;pointerEvents=0;fillColor=none;points=[[0,0.5],[1,0.5]];portConstraint=eastwest;top=0;left=0;right=0;bottom=0;" vertex="1" parent="g749_msIezuKp8OIKfwZ-199">
          <mxGeometry y="30" width="320" height="30" as="geometry" />
        </mxCell>
        <mxCell id="g749_msIezuKp8OIKfwZ-201" value="" style="shape=partialRectangle;overflow=hidden;connectable=0;fillColor=none;top=0;left=0;bottom=0;right=0;" vertex="1" parent="g749_msIezuKp8OIKfwZ-200">
          <mxGeometry width="30" height="30" as="geometry" />
        </mxCell>
        <mxCell id="g749_msIezuKp8OIKfwZ-202" value="`id` int(11) unsigned NOT NULL AUTO_INCREMENT COMMENT &#39;主键id&#39;" style="shape=partialRectangle;overflow=hidden;connectable=0;fillColor=none;top=0;left=0;bottom=0;right=0;align=left;spacingLeft=6;" vertex="1" parent="g749_msIezuKp8OIKfwZ-200">
          <mxGeometry x="30" width="290" height="30" as="geometry" />
        </mxCell>
        <mxCell id="g749_msIezuKp8OIKfwZ-203" value="" style="shape=partialRectangle;collapsible=0;dropTarget=0;pointerEvents=0;fillColor=none;points=[[0,0.5],[1,0.5]];portConstraint=eastwest;top=0;left=0;right=0;bottom=0;" vertex="1" parent="g749_msIezuKp8OIKfwZ-199">
          <mxGeometry y="60" width="320" height="30" as="geometry" />
        </mxCell>
        <mxCell id="g749_msIezuKp8OIKfwZ-204" value="" style="shape=partialRectangle;overflow=hidden;connectable=0;fillColor=none;top=0;left=0;bottom=0;right=0;" vertex="1" parent="g749_msIezuKp8OIKfwZ-203">
          <mxGeometry width="30" height="30" as="geometry" />
        </mxCell>
        <mxCell id="g749_msIezuKp8OIKfwZ-205" value="`sn` varchar(30) DEFAULT NULL COMMENT &#39;编号&#39;" style="shape=partialRectangle;overflow=hidden;connectable=0;fillColor=none;top=0;left=0;bottom=0;right=0;align=left;spacingLeft=6;" vertex="1" parent="g749_msIezuKp8OIKfwZ-203">
          <mxGeometry x="30" width="290" height="30" as="geometry" />
        </mxCell>
        <mxCell id="g749_msIezuKp8OIKfwZ-206" value="" style="shape=partialRectangle;collapsible=0;dropTarget=0;pointerEvents=0;fillColor=none;points=[[0,0.5],[1,0.5]];portConstraint=eastwest;top=0;left=0;right=0;bottom=0;" vertex="1" parent="g749_msIezuKp8OIKfwZ-199">
          <mxGeometry y="90" width="320" height="30" as="geometry" />
        </mxCell>
        <mxCell id="g749_msIezuKp8OIKfwZ-207" value="" style="shape=partialRectangle;overflow=hidden;connectable=0;fillColor=none;top=0;left=0;bottom=0;right=0;" vertex="1" parent="g749_msIezuKp8OIKfwZ-206">
          <mxGeometry width="30" height="30" as="geometry" />
        </mxCell>
        <mxCell id="g749_msIezuKp8OIKfwZ-208" value="`name` varchar(30) DEFAULT NULL COMMENT &#39;组织名称&#39;" style="shape=partialRectangle;overflow=hidden;connectable=0;fillColor=none;top=0;left=0;bottom=0;right=0;align=left;spacingLeft=6;" vertex="1" parent="g749_msIezuKp8OIKfwZ-206">
          <mxGeometry x="30" width="290" height="30" as="geometry" />
        </mxCell>
        <mxCell id="g749_msIezuKp8OIKfwZ-209" value="" style="shape=partialRectangle;collapsible=0;dropTarget=0;pointerEvents=0;fillColor=none;points=[[0,0.5],[1,0.5]];portConstraint=eastwest;top=0;left=0;right=0;bottom=0;" vertex="1" parent="g749_msIezuKp8OIKfwZ-199">
          <mxGeometry y="120" width="320" height="30" as="geometry" />
        </mxCell>
        <mxCell id="g749_msIezuKp8OIKfwZ-210" value="" style="shape=partialRectangle;overflow=hidden;connectable=0;fillColor=none;top=0;left=0;bottom=0;right=0;" vertex="1" parent="g749_msIezuKp8OIKfwZ-209">
          <mxGeometry width="30" height="30" as="geometry" />
        </mxCell>
        <mxCell id="g749_msIezuKp8OIKfwZ-211" value="`cn_name` varchar(30) DEFAULT NULL COMMENT &#39;中文名称&#39;" style="shape=partialRectangle;overflow=hidden;connectable=0;fillColor=none;top=0;left=0;bottom=0;right=0;align=left;spacingLeft=6;" vertex="1" parent="g749_msIezuKp8OIKfwZ-209">
          <mxGeometry x="30" width="290" height="30" as="geometry" />
        </mxCell>
        <mxCell id="g749_msIezuKp8OIKfwZ-212" value="" style="shape=partialRectangle;collapsible=0;dropTarget=0;pointerEvents=0;fillColor=none;points=[[0,0.5],[1,0.5]];portConstraint=eastwest;top=0;left=0;right=0;bottom=0;" vertex="1" parent="g749_msIezuKp8OIKfwZ-199">
          <mxGeometry y="150" width="320" height="30" as="geometry" />
        </mxCell>
        <mxCell id="g749_msIezuKp8OIKfwZ-213" value="" style="shape=partialRectangle;overflow=hidden;connectable=0;fillColor=none;top=0;left=0;bottom=0;right=0;" vertex="1" parent="g749_msIezuKp8OIKfwZ-212">
          <mxGeometry width="30" height="30" as="geometry" />
        </mxCell>
        <mxCell id="g749_msIezuKp8OIKfwZ-214" value="`en_name` varchar(30) DEFAULT NULL COMMENT &#39;英文名称&#39;" style="shape=partialRectangle;overflow=hidden;connectable=0;fillColor=none;top=0;left=0;bottom=0;right=0;align=left;spacingLeft=6;" vertex="1" parent="g749_msIezuKp8OIKfwZ-212">
          <mxGeometry x="30" width="290" height="30" as="geometry" />
        </mxCell>
        <mxCell id="g749_msIezuKp8OIKfwZ-215" value="" style="shape=partialRectangle;collapsible=0;dropTarget=0;pointerEvents=0;fillColor=none;points=[[0,0.5],[1,0.5]];portConstraint=eastwest;top=0;left=0;right=0;bottom=0;" vertex="1" parent="g749_msIezuKp8OIKfwZ-199">
          <mxGeometry y="180" width="320" height="30" as="geometry" />
        </mxCell>
        <mxCell id="g749_msIezuKp8OIKfwZ-216" value="" style="shape=partialRectangle;overflow=hidden;connectable=0;fillColor=none;top=0;left=0;bottom=0;right=0;" vertex="1" parent="g749_msIezuKp8OIKfwZ-215">
          <mxGeometry width="30" height="30" as="geometry" />
        </mxCell>
        <mxCell id="g749_msIezuKp8OIKfwZ-217" value="`parent_id` int(11) NOT NULL DEFAULT &#39;0&#39; COMMENT &#39;父级id&#39;" style="shape=partialRectangle;overflow=hidden;connectable=0;fillColor=none;top=0;left=0;bottom=0;right=0;align=left;spacingLeft=6;" vertex="1" parent="g749_msIezuKp8OIKfwZ-215">
          <mxGeometry x="30" width="290" height="30" as="geometry" />
        </mxCell>
        <mxCell id="g749_msIezuKp8OIKfwZ-218" value="" style="shape=partialRectangle;collapsible=0;dropTarget=0;pointerEvents=0;fillColor=none;points=[[0,0.5],[1,0.5]];portConstraint=eastwest;top=0;left=0;right=0;bottom=0;" vertex="1" parent="g749_msIezuKp8OIKfwZ-199">
          <mxGeometry y="210" width="320" height="30" as="geometry" />
        </mxCell>
        <mxCell id="g749_msIezuKp8OIKfwZ-219" value="" style="shape=partialRectangle;overflow=hidden;connectable=0;fillColor=none;top=0;left=0;bottom=0;right=0;" vertex="1" parent="g749_msIezuKp8OIKfwZ-218">
          <mxGeometry width="30" height="30" as="geometry" />
        </mxCell>
        <mxCell id="g749_msIezuKp8OIKfwZ-220" value="`description` varchar(200) DEFAULT NULL COMMENT &#39;组织描述&#39;" style="shape=partialRectangle;overflow=hidden;connectable=0;fillColor=none;top=0;left=0;bottom=0;right=0;align=left;spacingLeft=6;" vertex="1" parent="g749_msIezuKp8OIKfwZ-218">
          <mxGeometry x="30" width="290" height="30" as="geometry" />
        </mxCell>
        <mxCell id="g749_msIezuKp8OIKfwZ-221" value="`permission` (权限表)" style="shape=table;startSize=30;container=1;collapsible=1;childLayout=tableLayout;fixedRows=1;rowLines=0;fontStyle=1;align=center;resizeLast=1;" vertex="1" parent="1">
          <mxGeometry x="1520" y="170" width="320" height="250" as="geometry" />
        </mxCell>
        <mxCell id="g749_msIezuKp8OIKfwZ-222" value="" style="shape=partialRectangle;collapsible=0;dropTarget=0;pointerEvents=0;fillColor=none;points=[[0,0.5],[1,0.5]];portConstraint=eastwest;top=0;left=0;right=0;bottom=0;" vertex="1" parent="g749_msIezuKp8OIKfwZ-221">
          <mxGeometry y="30" width="320" height="30" as="geometry" />
        </mxCell>
        <mxCell id="g749_msIezuKp8OIKfwZ-223" value="" style="shape=partialRectangle;overflow=hidden;connectable=0;fillColor=none;top=0;left=0;bottom=0;right=0;" vertex="1" parent="g749_msIezuKp8OIKfwZ-222">
          <mxGeometry width="30" height="30" as="geometry" />
        </mxCell>
        <mxCell id="g749_msIezuKp8OIKfwZ-224" value="`id` int(11) NOT NULL AUTO_INCREMENT COMMENT &#39;主键id&#39;" style="shape=partialRectangle;overflow=hidden;connectable=0;fillColor=none;top=0;left=0;bottom=0;right=0;align=left;spacingLeft=6;" vertex="1" parent="g749_msIezuKp8OIKfwZ-222">
          <mxGeometry x="30" width="290" height="30" as="geometry" />
        </mxCell>
        <mxCell id="g749_msIezuKp8OIKfwZ-225" value="" style="shape=partialRectangle;collapsible=0;dropTarget=0;pointerEvents=0;fillColor=none;points=[[0,0.5],[1,0.5]];portConstraint=eastwest;top=0;left=0;right=0;bottom=0;" vertex="1" parent="g749_msIezuKp8OIKfwZ-221">
          <mxGeometry y="60" width="320" height="30" as="geometry" />
        </mxCell>
        <mxCell id="g749_msIezuKp8OIKfwZ-226" value="" style="shape=partialRectangle;overflow=hidden;connectable=0;fillColor=none;top=0;left=0;bottom=0;right=0;" vertex="1" parent="g749_msIezuKp8OIKfwZ-225">
          <mxGeometry width="30" height="30" as="geometry" />
        </mxCell>
        <mxCell id="g749_msIezuKp8OIKfwZ-227" value="`parent_id` int(11) DEFAULT NULL COMMENT &#39;父级权限id&#39;" style="shape=partialRectangle;overflow=hidden;connectable=0;fillColor=none;top=0;left=0;bottom=0;right=0;align=left;spacingLeft=6;" vertex="1" parent="g749_msIezuKp8OIKfwZ-225">
          <mxGeometry x="30" width="290" height="30" as="geometry" />
        </mxCell>
        <mxCell id="g749_msIezuKp8OIKfwZ-228" value="" style="shape=partialRectangle;collapsible=0;dropTarget=0;pointerEvents=0;fillColor=none;points=[[0,0.5],[1,0.5]];portConstraint=eastwest;top=0;left=0;right=0;bottom=0;" vertex="1" parent="g749_msIezuKp8OIKfwZ-221">
          <mxGeometry y="90" width="320" height="30" as="geometry" />
        </mxCell>
        <mxCell id="g749_msIezuKp8OIKfwZ-229" value="" style="shape=partialRectangle;overflow=hidden;connectable=0;fillColor=none;top=0;left=0;bottom=0;right=0;" vertex="1" parent="g749_msIezuKp8OIKfwZ-228">
          <mxGeometry width="30" height="30" as="geometry" />
        </mxCell>
        <mxCell id="g749_msIezuKp8OIKfwZ-230" value="`name` varchar(100) DEFAULT NULL COMMENT &#39;名称&#39;" style="shape=partialRectangle;overflow=hidden;connectable=0;fillColor=none;top=0;left=0;bottom=0;right=0;align=left;spacingLeft=6;" vertex="1" parent="g749_msIezuKp8OIKfwZ-228">
          <mxGeometry x="30" width="290" height="30" as="geometry" />
        </mxCell>
        <mxCell id="g749_msIezuKp8OIKfwZ-231" value="" style="shape=partialRectangle;collapsible=0;dropTarget=0;pointerEvents=0;fillColor=none;points=[[0,0.5],[1,0.5]];portConstraint=eastwest;top=0;left=0;right=0;bottom=0;" vertex="1" parent="g749_msIezuKp8OIKfwZ-221">
          <mxGeometry y="120" width="320" height="30" as="geometry" />
        </mxCell>
        <mxCell id="g749_msIezuKp8OIKfwZ-232" value="" style="shape=partialRectangle;overflow=hidden;connectable=0;fillColor=none;top=0;left=0;bottom=0;right=0;" vertex="1" parent="g749_msIezuKp8OIKfwZ-231">
          <mxGeometry width="30" height="30" as="geometry" />
        </mxCell>
        <mxCell id="g749_msIezuKp8OIKfwZ-233" value="`value` varchar(200) DEFAULT NULL COMMENT &#39;权限值&#39;" style="shape=partialRectangle;overflow=hidden;connectable=0;fillColor=none;top=0;left=0;bottom=0;right=0;align=left;spacingLeft=6;" vertex="1" parent="g749_msIezuKp8OIKfwZ-231">
          <mxGeometry x="30" width="290" height="30" as="geometry" />
        </mxCell>
        <mxCell id="g749_msIezuKp8OIKfwZ-234" value="" style="shape=partialRectangle;collapsible=0;dropTarget=0;pointerEvents=0;fillColor=none;points=[[0,0.5],[1,0.5]];portConstraint=eastwest;top=0;left=0;right=0;bottom=0;" vertex="1" parent="g749_msIezuKp8OIKfwZ-221">
          <mxGeometry y="150" width="320" height="30" as="geometry" />
        </mxCell>
        <mxCell id="g749_msIezuKp8OIKfwZ-235" value="" style="shape=partialRectangle;overflow=hidden;connectable=0;fillColor=none;top=0;left=0;bottom=0;right=0;" vertex="1" parent="g749_msIezuKp8OIKfwZ-234">
          <mxGeometry width="30" height="30" as="geometry" />
        </mxCell>
        <mxCell id="g749_msIezuKp8OIKfwZ-236" value="`type` int(1) DEFAULT NULL COMMENT &#39;权限类型：0-&gt;目录；1-&gt;菜单；2-&gt;按钮（接口绑定权限）&#39;" style="shape=partialRectangle;overflow=hidden;connectable=0;fillColor=none;top=0;left=0;bottom=0;right=0;align=left;spacingLeft=6;" vertex="1" parent="g749_msIezuKp8OIKfwZ-234">
          <mxGeometry x="30" width="290" height="30" as="geometry" />
        </mxCell>
        <mxCell id="g749_msIezuKp8OIKfwZ-237" value="" style="shape=partialRectangle;collapsible=0;dropTarget=0;pointerEvents=0;fillColor=none;points=[[0,0.5],[1,0.5]];portConstraint=eastwest;top=0;left=0;right=0;bottom=0;" vertex="1" parent="g749_msIezuKp8OIKfwZ-221">
          <mxGeometry y="180" width="320" height="30" as="geometry" />
        </mxCell>
        <mxCell id="g749_msIezuKp8OIKfwZ-238" value="" style="shape=partialRectangle;overflow=hidden;connectable=0;fillColor=none;top=0;left=0;bottom=0;right=0;" vertex="1" parent="g749_msIezuKp8OIKfwZ-237">
          <mxGeometry width="30" height="30" as="geometry" />
        </mxCell>
        <mxCell id="g749_msIezuKp8OIKfwZ-239" value="`create_time` datetime DEFAULT NULL COMMENT &#39;创建时间&#39;" style="shape=partialRectangle;overflow=hidden;connectable=0;fillColor=none;top=0;left=0;bottom=0;right=0;align=left;spacingLeft=6;" vertex="1" parent="g749_msIezuKp8OIKfwZ-237">
          <mxGeometry x="30" width="290" height="30" as="geometry" />
        </mxCell>
        <mxCell id="g749_msIezuKp8OIKfwZ-240" value="" style="shape=partialRectangle;collapsible=0;dropTarget=0;pointerEvents=0;fillColor=none;points=[[0,0.5],[1,0.5]];portConstraint=eastwest;top=0;left=0;right=0;bottom=0;" vertex="1" parent="g749_msIezuKp8OIKfwZ-221">
          <mxGeometry y="210" width="320" height="30" as="geometry" />
        </mxCell>
        <mxCell id="g749_msIezuKp8OIKfwZ-241" value="" style="shape=partialRectangle;overflow=hidden;connectable=0;fillColor=none;top=0;left=0;bottom=0;right=0;" vertex="1" parent="g749_msIezuKp8OIKfwZ-240">
          <mxGeometry width="30" height="30" as="geometry" />
        </mxCell>
        <mxCell id="g749_msIezuKp8OIKfwZ-242" value="`update_time` datetime DEFAULT NULL COMMENT &#39;更新时间&#39;" style="shape=partialRectangle;overflow=hidden;connectable=0;fillColor=none;top=0;left=0;bottom=0;right=0;align=left;spacingLeft=6;" vertex="1" parent="g749_msIezuKp8OIKfwZ-240">
          <mxGeometry x="30" width="290" height="30" as="geometry" />
        </mxCell>
        <mxCell id="g749_msIezuKp8OIKfwZ-243" value="`role` (角色表)" style="shape=table;startSize=30;container=1;collapsible=1;childLayout=tableLayout;fixedRows=1;rowLines=0;fontStyle=1;align=center;resizeLast=1;" vertex="1" parent="1">
          <mxGeometry x="1880" y="170" width="320" height="160" as="geometry" />
        </mxCell>
        <mxCell id="g749_msIezuKp8OIKfwZ-244" value="" style="shape=partialRectangle;collapsible=0;dropTarget=0;pointerEvents=0;fillColor=none;points=[[0,0.5],[1,0.5]];portConstraint=eastwest;top=0;left=0;right=0;bottom=0;" vertex="1" parent="g749_msIezuKp8OIKfwZ-243">
          <mxGeometry y="30" width="320" height="30" as="geometry" />
        </mxCell>
        <mxCell id="g749_msIezuKp8OIKfwZ-245" value="" style="shape=partialRectangle;overflow=hidden;connectable=0;fillColor=none;top=0;left=0;bottom=0;right=0;" vertex="1" parent="g749_msIezuKp8OIKfwZ-244">
          <mxGeometry width="30" height="30" as="geometry" />
        </mxCell>
        <mxCell id="g749_msIezuKp8OIKfwZ-246" value="`id` int(11) NOT NULL AUTO_INCREMENT COMMENT &#39;主键id&#39;" style="shape=partialRectangle;overflow=hidden;connectable=0;fillColor=none;top=0;left=0;bottom=0;right=0;align=left;spacingLeft=6;" vertex="1" parent="g749_msIezuKp8OIKfwZ-244">
          <mxGeometry x="30" width="290" height="30" as="geometry" />
        </mxCell>
        <mxCell id="g749_msIezuKp8OIKfwZ-247" value="" style="shape=partialRectangle;collapsible=0;dropTarget=0;pointerEvents=0;fillColor=none;points=[[0,0.5],[1,0.5]];portConstraint=eastwest;top=0;left=0;right=0;bottom=0;" vertex="1" parent="g749_msIezuKp8OIKfwZ-243">
          <mxGeometry y="60" width="320" height="30" as="geometry" />
        </mxCell>
        <mxCell id="g749_msIezuKp8OIKfwZ-248" value="" style="shape=partialRectangle;overflow=hidden;connectable=0;fillColor=none;top=0;left=0;bottom=0;right=0;" vertex="1" parent="g749_msIezuKp8OIKfwZ-247">
          <mxGeometry width="30" height="30" as="geometry" />
        </mxCell>
        <mxCell id="g749_msIezuKp8OIKfwZ-249" value="`name` varchar(100) DEFAULT NULL COMMENT &#39;名称&#39;" style="shape=partialRectangle;overflow=hidden;connectable=0;fillColor=none;top=0;left=0;bottom=0;right=0;align=left;spacingLeft=6;" vertex="1" parent="g749_msIezuKp8OIKfwZ-247">
          <mxGeometry x="30" width="290" height="30" as="geometry" />
        </mxCell>
        <mxCell id="g749_msIezuKp8OIKfwZ-250" value="" style="shape=partialRectangle;collapsible=0;dropTarget=0;pointerEvents=0;fillColor=none;points=[[0,0.5],[1,0.5]];portConstraint=eastwest;top=0;left=0;right=0;bottom=0;" vertex="1" parent="g749_msIezuKp8OIKfwZ-243">
          <mxGeometry y="90" width="320" height="30" as="geometry" />
        </mxCell>
        <mxCell id="g749_msIezuKp8OIKfwZ-251" value="" style="shape=partialRectangle;overflow=hidden;connectable=0;fillColor=none;top=0;left=0;bottom=0;right=0;" vertex="1" parent="g749_msIezuKp8OIKfwZ-250">
          <mxGeometry width="30" height="30" as="geometry" />
        </mxCell>
        <mxCell id="g749_msIezuKp8OIKfwZ-252" value="`create_time` datetime DEFAULT NULL COMMENT &#39;创建时间&#39;" style="shape=partialRectangle;overflow=hidden;connectable=0;fillColor=none;top=0;left=0;bottom=0;right=0;align=left;spacingLeft=6;" vertex="1" parent="g749_msIezuKp8OIKfwZ-250">
          <mxGeometry x="30" width="290" height="30" as="geometry" />
        </mxCell>
        <mxCell id="g749_msIezuKp8OIKfwZ-253" value="" style="shape=partialRectangle;collapsible=0;dropTarget=0;pointerEvents=0;fillColor=none;points=[[0,0.5],[1,0.5]];portConstraint=eastwest;top=0;left=0;right=0;bottom=0;" vertex="1" parent="g749_msIezuKp8OIKfwZ-243">
          <mxGeometry y="120" width="320" height="30" as="geometry" />
        </mxCell>
        <mxCell id="g749_msIezuKp8OIKfwZ-254" value="" style="shape=partialRectangle;overflow=hidden;connectable=0;fillColor=none;top=0;left=0;bottom=0;right=0;" vertex="1" parent="g749_msIezuKp8OIKfwZ-253">
          <mxGeometry width="30" height="30" as="geometry" />
        </mxCell>
        <mxCell id="g749_msIezuKp8OIKfwZ-255" value="`update_time` datetime DEFAULT NULL COMMENT &#39;更新时间&#39;" style="shape=partialRectangle;overflow=hidden;connectable=0;fillColor=none;top=0;left=0;bottom=0;right=0;align=left;spacingLeft=6;" vertex="1" parent="g749_msIezuKp8OIKfwZ-253">
          <mxGeometry x="30" width="290" height="30" as="geometry" />
        </mxCell>
        <mxCell id="g749_msIezuKp8OIKfwZ-256" value="`role_permission` (角色和权限关系表)" style="shape=table;startSize=30;container=1;collapsible=1;childLayout=tableLayout;fixedRows=1;rowLines=0;fontStyle=1;align=center;resizeLast=1;" vertex="1" parent="1">
          <mxGeometry x="2240" y="170" width="320" height="130" as="geometry" />
        </mxCell>
        <mxCell id="g749_msIezuKp8OIKfwZ-257" value="" style="shape=partialRectangle;collapsible=0;dropTarget=0;pointerEvents=0;fillColor=none;points=[[0,0.5],[1,0.5]];portConstraint=eastwest;top=0;left=0;right=0;bottom=0;" vertex="1" parent="g749_msIezuKp8OIKfwZ-256">
          <mxGeometry y="30" width="320" height="30" as="geometry" />
        </mxCell>
        <mxCell id="g749_msIezuKp8OIKfwZ-258" value="" style="shape=partialRectangle;overflow=hidden;connectable=0;fillColor=none;top=0;left=0;bottom=0;right=0;" vertex="1" parent="g749_msIezuKp8OIKfwZ-257">
          <mxGeometry width="30" height="30" as="geometry" />
        </mxCell>
        <mxCell id="g749_msIezuKp8OIKfwZ-259" value="`id` int(11) NOT NULL AUTO_INCREMENT COMMENT &#39;主键id&#39;" style="shape=partialRectangle;overflow=hidden;connectable=0;fillColor=none;top=0;left=0;bottom=0;right=0;align=left;spacingLeft=6;" vertex="1" parent="g749_msIezuKp8OIKfwZ-257">
          <mxGeometry x="30" width="290" height="30" as="geometry" />
        </mxCell>
        <mxCell id="g749_msIezuKp8OIKfwZ-260" value="" style="shape=partialRectangle;collapsible=0;dropTarget=0;pointerEvents=0;fillColor=none;points=[[0,0.5],[1,0.5]];portConstraint=eastwest;top=0;left=0;right=0;bottom=0;" vertex="1" parent="g749_msIezuKp8OIKfwZ-256">
          <mxGeometry y="60" width="320" height="30" as="geometry" />
        </mxCell>
        <mxCell id="g749_msIezuKp8OIKfwZ-261" value="" style="shape=partialRectangle;overflow=hidden;connectable=0;fillColor=none;top=0;left=0;bottom=0;right=0;" vertex="1" parent="g749_msIezuKp8OIKfwZ-260">
          <mxGeometry width="30" height="30" as="geometry" />
        </mxCell>
        <mxCell id="g749_msIezuKp8OIKfwZ-262" value="`role_id` int(11) DEFAULT NULL COMMENT &#39;角色id&#39;" style="shape=partialRectangle;overflow=hidden;connectable=0;fillColor=none;top=0;left=0;bottom=0;right=0;align=left;spacingLeft=6;" vertex="1" parent="g749_msIezuKp8OIKfwZ-260">
          <mxGeometry x="30" width="290" height="30" as="geometry" />
        </mxCell>
        <mxCell id="g749_msIezuKp8OIKfwZ-263" value="" style="shape=partialRectangle;collapsible=0;dropTarget=0;pointerEvents=0;fillColor=none;points=[[0,0.5],[1,0.5]];portConstraint=eastwest;top=0;left=0;right=0;bottom=0;" vertex="1" parent="g749_msIezuKp8OIKfwZ-256">
          <mxGeometry y="90" width="320" height="30" as="geometry" />
        </mxCell>
        <mxCell id="g749_msIezuKp8OIKfwZ-264" value="" style="shape=partialRectangle;overflow=hidden;connectable=0;fillColor=none;top=0;left=0;bottom=0;right=0;" vertex="1" parent="g749_msIezuKp8OIKfwZ-263">
          <mxGeometry width="30" height="30" as="geometry" />
        </mxCell>
        <mxCell id="g749_msIezuKp8OIKfwZ-265" value="`permission_id` int(11) DEFAULT NULL COMMENT &#39;权限id&#39;" style="shape=partialRectangle;overflow=hidden;connectable=0;fillColor=none;top=0;left=0;bottom=0;right=0;align=left;spacingLeft=6;" vertex="1" parent="g749_msIezuKp8OIKfwZ-263">
          <mxGeometry x="30" width="290" height="30" as="geometry" />
        </mxCell>
        <mxCell id="g749_msIezuKp8OIKfwZ-266" value="`sensor` (传感器表)" style="shape=table;startSize=30;container=1;collapsible=1;childLayout=tableLayout;fixedRows=1;rowLines=0;fontStyle=1;align=center;resizeLast=1;" vertex="1" parent="1">
          <mxGeometry x="2600" y="170" width="320" height="250" as="geometry" />
        </mxCell>
        <mxCell id="g749_msIezuKp8OIKfwZ-267" value="" style="shape=partialRectangle;collapsible=0;dropTarget=0;pointerEvents=0;fillColor=none;points=[[0,0.5],[1,0.5]];portConstraint=eastwest;top=0;left=0;right=0;bottom=0;" vertex="1" parent="g749_msIezuKp8OIKfwZ-266">
          <mxGeometry y="30" width="320" height="30" as="geometry" />
        </mxCell>
        <mxCell id="g749_msIezuKp8OIKfwZ-268" value="" style="shape=partialRectangle;overflow=hidden;connectable=0;fillColor=none;top=0;left=0;bottom=0;right=0;" vertex="1" parent="g749_msIezuKp8OIKfwZ-267">
          <mxGeometry width="30" height="30" as="geometry" />
        </mxCell>
        <mxCell id="g749_msIezuKp8OIKfwZ-269" value="`id` int(11) unsigned NOT NULL AUTO_INCREMENT COMMENT &#39;主键id&#39;" style="shape=partialRectangle;overflow=hidden;connectable=0;fillColor=none;top=0;left=0;bottom=0;right=0;align=left;spacingLeft=6;" vertex="1" parent="g749_msIezuKp8OIKfwZ-267">
          <mxGeometry x="30" width="290" height="30" as="geometry" />
        </mxCell>
        <mxCell id="g749_msIezuKp8OIKfwZ-270" value="" style="shape=partialRectangle;collapsible=0;dropTarget=0;pointerEvents=0;fillColor=none;points=[[0,0.5],[1,0.5]];portConstraint=eastwest;top=0;left=0;right=0;bottom=0;" vertex="1" parent="g749_msIezuKp8OIKfwZ-266">
          <mxGeometry y="60" width="320" height="30" as="geometry" />
        </mxCell>
        <mxCell id="g749_msIezuKp8OIKfwZ-271" value="" style="shape=partialRectangle;overflow=hidden;connectable=0;fillColor=none;top=0;left=0;bottom=0;right=0;" vertex="1" parent="g749_msIezuKp8OIKfwZ-270">
          <mxGeometry width="30" height="30" as="geometry" />
        </mxCell>
        <mxCell id="g749_msIezuKp8OIKfwZ-272" value="`sn` varchar(50) DEFAULT NULL COMMENT &#39;传感器编号&#39;" style="shape=partialRectangle;overflow=hidden;connectable=0;fillColor=none;top=0;left=0;bottom=0;right=0;align=left;spacingLeft=6;" vertex="1" parent="g749_msIezuKp8OIKfwZ-270">
          <mxGeometry x="30" width="290" height="30" as="geometry" />
        </mxCell>
        <mxCell id="g749_msIezuKp8OIKfwZ-273" value="" style="shape=partialRectangle;collapsible=0;dropTarget=0;pointerEvents=0;fillColor=none;points=[[0,0.5],[1,0.5]];portConstraint=eastwest;top=0;left=0;right=0;bottom=0;" vertex="1" parent="g749_msIezuKp8OIKfwZ-266">
          <mxGeometry y="90" width="320" height="30" as="geometry" />
        </mxCell>
        <mxCell id="g749_msIezuKp8OIKfwZ-274" value="" style="shape=partialRectangle;overflow=hidden;connectable=0;fillColor=none;top=0;left=0;bottom=0;right=0;" vertex="1" parent="g749_msIezuKp8OIKfwZ-273">
          <mxGeometry width="30" height="30" as="geometry" />
        </mxCell>
        <mxCell id="g749_msIezuKp8OIKfwZ-275" value="`name` varchar(100) DEFAULT NULL COMMENT &#39;传感器名称&#39;" style="shape=partialRectangle;overflow=hidden;connectable=0;fillColor=none;top=0;left=0;bottom=0;right=0;align=left;spacingLeft=6;" vertex="1" parent="g749_msIezuKp8OIKfwZ-273">
          <mxGeometry x="30" width="290" height="30" as="geometry" />
        </mxCell>
        <mxCell id="g749_msIezuKp8OIKfwZ-276" value="" style="shape=partialRectangle;collapsible=0;dropTarget=0;pointerEvents=0;fillColor=none;points=[[0,0.5],[1,0.5]];portConstraint=eastwest;top=0;left=0;right=0;bottom=0;" vertex="1" parent="g749_msIezuKp8OIKfwZ-266">
          <mxGeometry y="120" width="320" height="30" as="geometry" />
        </mxCell>
        <mxCell id="g749_msIezuKp8OIKfwZ-277" value="" style="shape=partialRectangle;overflow=hidden;connectable=0;fillColor=none;top=0;left=0;bottom=0;right=0;" vertex="1" parent="g749_msIezuKp8OIKfwZ-276">
          <mxGeometry width="30" height="30" as="geometry" />
        </mxCell>
        <mxCell id="g749_msIezuKp8OIKfwZ-278" value="`device_id` int(11) DEFAULT NULL COMMENT &#39;设备id&#39;" style="shape=partialRectangle;overflow=hidden;connectable=0;fillColor=none;top=0;left=0;bottom=0;right=0;align=left;spacingLeft=6;" vertex="1" parent="g749_msIezuKp8OIKfwZ-276">
          <mxGeometry x="30" width="290" height="30" as="geometry" />
        </mxCell>
        <mxCell id="g749_msIezuKp8OIKfwZ-279" value="" style="shape=partialRectangle;collapsible=0;dropTarget=0;pointerEvents=0;fillColor=none;points=[[0,0.5],[1,0.5]];portConstraint=eastwest;top=0;left=0;right=0;bottom=0;" vertex="1" parent="g749_msIezuKp8OIKfwZ-266">
          <mxGeometry y="150" width="320" height="30" as="geometry" />
        </mxCell>
        <mxCell id="g749_msIezuKp8OIKfwZ-280" value="" style="shape=partialRectangle;overflow=hidden;connectable=0;fillColor=none;top=0;left=0;bottom=0;right=0;" vertex="1" parent="g749_msIezuKp8OIKfwZ-279">
          <mxGeometry width="30" height="30" as="geometry" />
        </mxCell>
        <mxCell id="g749_msIezuKp8OIKfwZ-281" value="`sensor_type_id` int(11) DEFAULT NULL COMMENT &#39;传感器类型&#39;" style="shape=partialRectangle;overflow=hidden;connectable=0;fillColor=none;top=0;left=0;bottom=0;right=0;align=left;spacingLeft=6;" vertex="1" parent="g749_msIezuKp8OIKfwZ-279">
          <mxGeometry x="30" width="290" height="30" as="geometry" />
        </mxCell>
        <mxCell id="g749_msIezuKp8OIKfwZ-282" value="" style="shape=partialRectangle;collapsible=0;dropTarget=0;pointerEvents=0;fillColor=none;points=[[0,0.5],[1,0.5]];portConstraint=eastwest;top=0;left=0;right=0;bottom=0;" vertex="1" parent="g749_msIezuKp8OIKfwZ-266">
          <mxGeometry y="180" width="320" height="30" as="geometry" />
        </mxCell>
        <mxCell id="g749_msIezuKp8OIKfwZ-283" value="" style="shape=partialRectangle;overflow=hidden;connectable=0;fillColor=none;top=0;left=0;bottom=0;right=0;" vertex="1" parent="g749_msIezuKp8OIKfwZ-282">
          <mxGeometry width="30" height="30" as="geometry" />
        </mxCell>
        <mxCell id="g749_msIezuKp8OIKfwZ-284" value="`create_time` datetime DEFAULT NULL COMMENT &#39;创建时间&#39;" style="shape=partialRectangle;overflow=hidden;connectable=0;fillColor=none;top=0;left=0;bottom=0;right=0;align=left;spacingLeft=6;" vertex="1" parent="g749_msIezuKp8OIKfwZ-282">
          <mxGeometry x="30" width="290" height="30" as="geometry" />
        </mxCell>
        <mxCell id="g749_msIezuKp8OIKfwZ-285" value="" style="shape=partialRectangle;collapsible=0;dropTarget=0;pointerEvents=0;fillColor=none;points=[[0,0.5],[1,0.5]];portConstraint=eastwest;top=0;left=0;right=0;bottom=0;" vertex="1" parent="g749_msIezuKp8OIKfwZ-266">
          <mxGeometry y="210" width="320" height="30" as="geometry" />
        </mxCell>
        <mxCell id="g749_msIezuKp8OIKfwZ-286" value="" style="shape=partialRectangle;overflow=hidden;connectable=0;fillColor=none;top=0;left=0;bottom=0;right=0;" vertex="1" parent="g749_msIezuKp8OIKfwZ-285">
          <mxGeometry width="30" height="30" as="geometry" />
        </mxCell>
        <mxCell id="g749_msIezuKp8OIKfwZ-287" value="`update_time` datetime DEFAULT NULL COMMENT &#39;更新时间&#39;" style="shape=partialRectangle;overflow=hidden;connectable=0;fillColor=none;top=0;left=0;bottom=0;right=0;align=left;spacingLeft=6;" vertex="1" parent="g749_msIezuKp8OIKfwZ-285">
          <mxGeometry x="30" width="290" height="30" as="geometry" />
        </mxCell>
        <mxCell id="g749_msIezuKp8OIKfwZ-288" value="`sensor_type` (传感器类型表)" style="shape=table;startSize=30;container=1;collapsible=1;childLayout=tableLayout;fixedRows=1;rowLines=0;fontStyle=1;align=center;resizeLast=1;" vertex="1" parent="1">
          <mxGeometry x="2960" y="170" width="320" height="100" as="geometry" />
        </mxCell>
        <mxCell id="g749_msIezuKp8OIKfwZ-289" value="" style="shape=partialRectangle;collapsible=0;dropTarget=0;pointerEvents=0;fillColor=none;points=[[0,0.5],[1,0.5]];portConstraint=eastwest;top=0;left=0;right=0;bottom=0;" vertex="1" parent="g749_msIezuKp8OIKfwZ-288">
          <mxGeometry y="30" width="320" height="30" as="geometry" />
        </mxCell>
        <mxCell id="g749_msIezuKp8OIKfwZ-290" value="" style="shape=partialRectangle;overflow=hidden;connectable=0;fillColor=none;top=0;left=0;bottom=0;right=0;" vertex="1" parent="g749_msIezuKp8OIKfwZ-289">
          <mxGeometry width="30" height="30" as="geometry" />
        </mxCell>
        <mxCell id="g749_msIezuKp8OIKfwZ-291" value="`id` int(11) unsigned NOT NULL AUTO_INCREMENT COMMENT &#39;主键id&#39;" style="shape=partialRectangle;overflow=hidden;connectable=0;fillColor=none;top=0;left=0;bottom=0;right=0;align=left;spacingLeft=6;" vertex="1" parent="g749_msIezuKp8OIKfwZ-289">
          <mxGeometry x="30" width="290" height="30" as="geometry" />
        </mxCell>
        <mxCell id="g749_msIezuKp8OIKfwZ-292" value="" style="shape=partialRectangle;collapsible=0;dropTarget=0;pointerEvents=0;fillColor=none;points=[[0,0.5],[1,0.5]];portConstraint=eastwest;top=0;left=0;right=0;bottom=0;" vertex="1" parent="g749_msIezuKp8OIKfwZ-288">
          <mxGeometry y="60" width="320" height="30" as="geometry" />
        </mxCell>
        <mxCell id="g749_msIezuKp8OIKfwZ-293" value="" style="shape=partialRectangle;overflow=hidden;connectable=0;fillColor=none;top=0;left=0;bottom=0;right=0;" vertex="1" parent="g749_msIezuKp8OIKfwZ-292">
          <mxGeometry width="30" height="30" as="geometry" />
        </mxCell>
        <mxCell id="g749_msIezuKp8OIKfwZ-294" value="`name` varchar(30) DEFAULT NULL COMMENT &#39;名称&#39;" style="shape=partialRectangle;overflow=hidden;connectable=0;fillColor=none;top=0;left=0;bottom=0;right=0;align=left;spacingLeft=6;" vertex="1" parent="g749_msIezuKp8OIKfwZ-292">
          <mxGeometry x="30" width="290" height="30" as="geometry" />
        </mxCell>
        <mxCell id="g749_msIezuKp8OIKfwZ-295" value="`station` (站所表)" style="shape=table;startSize=30;container=1;collapsible=1;childLayout=tableLayout;fixedRows=1;rowLines=0;fontStyle=1;align=center;resizeLast=1;" vertex="1" parent="1">
          <mxGeometry x="-1890" y="1130" width="530" height="310" as="geometry" />
        </mxCell>
        <mxCell id="g749_msIezuKp8OIKfwZ-296" value="" style="shape=partialRectangle;collapsible=0;dropTarget=0;pointerEvents=0;fillColor=none;points=[[0,0.5],[1,0.5]];portConstraint=eastwest;top=0;left=0;right=0;bottom=0;" vertex="1" parent="g749_msIezuKp8OIKfwZ-295">
          <mxGeometry y="30" width="530" height="30" as="geometry" />
        </mxCell>
        <mxCell id="g749_msIezuKp8OIKfwZ-297" value="" style="shape=partialRectangle;overflow=hidden;connectable=0;fillColor=none;top=0;left=0;bottom=0;right=0;" vertex="1" parent="g749_msIezuKp8OIKfwZ-296">
          <mxGeometry width="30" height="30" as="geometry" />
        </mxCell>
        <mxCell id="g749_msIezuKp8OIKfwZ-298" value="`id` int(11) unsigned NOT NULL AUTO_INCREMENT COMMENT &#39;主键id&#39;" style="shape=partialRectangle;overflow=hidden;connectable=0;fillColor=none;top=0;left=0;bottom=0;right=0;align=left;spacingLeft=6;" vertex="1" parent="g749_msIezuKp8OIKfwZ-296">
          <mxGeometry x="30" width="500" height="30" as="geometry" />
        </mxCell>
        <mxCell id="g749_msIezuKp8OIKfwZ-299" value="" style="shape=partialRectangle;collapsible=0;dropTarget=0;pointerEvents=0;fillColor=none;points=[[0,0.5],[1,0.5]];portConstraint=eastwest;top=0;left=0;right=0;bottom=0;" vertex="1" parent="g749_msIezuKp8OIKfwZ-295">
          <mxGeometry y="60" width="530" height="30" as="geometry" />
        </mxCell>
        <mxCell id="g749_msIezuKp8OIKfwZ-300" value="" style="shape=partialRectangle;overflow=hidden;connectable=0;fillColor=none;top=0;left=0;bottom=0;right=0;" vertex="1" parent="g749_msIezuKp8OIKfwZ-299">
          <mxGeometry width="30" height="30" as="geometry" />
        </mxCell>
        <mxCell id="g749_msIezuKp8OIKfwZ-301" value="`name` varchar(100) DEFAULT NULL COMMENT &#39;站所名称&#39;" style="shape=partialRectangle;overflow=hidden;connectable=0;fillColor=none;top=0;left=0;bottom=0;right=0;align=left;spacingLeft=6;" vertex="1" parent="g749_msIezuKp8OIKfwZ-299">
          <mxGeometry x="30" width="500" height="30" as="geometry" />
        </mxCell>
        <mxCell id="g749_msIezuKp8OIKfwZ-302" value="" style="shape=partialRectangle;collapsible=0;dropTarget=0;pointerEvents=0;fillColor=none;points=[[0,0.5],[1,0.5]];portConstraint=eastwest;top=0;left=0;right=0;bottom=0;" vertex="1" parent="g749_msIezuKp8OIKfwZ-295">
          <mxGeometry y="90" width="530" height="30" as="geometry" />
        </mxCell>
        <mxCell id="g749_msIezuKp8OIKfwZ-303" value="" style="shape=partialRectangle;overflow=hidden;connectable=0;fillColor=none;top=0;left=0;bottom=0;right=0;" vertex="1" parent="g749_msIezuKp8OIKfwZ-302">
          <mxGeometry width="30" height="30" as="geometry" />
        </mxCell>
        <mxCell id="g749_msIezuKp8OIKfwZ-304" value="`type` int(1) DEFAULT NULL COMMENT &#39;站所类型: 1-&gt;变电站；2-&gt;开关站；3-&gt;配电站&#39;" style="shape=partialRectangle;overflow=hidden;connectable=0;fillColor=none;top=0;left=0;bottom=0;right=0;align=left;spacingLeft=6;" vertex="1" parent="g749_msIezuKp8OIKfwZ-302">
          <mxGeometry x="30" width="500" height="30" as="geometry" />
        </mxCell>
        <mxCell id="g749_msIezuKp8OIKfwZ-305" value="" style="shape=partialRectangle;collapsible=0;dropTarget=0;pointerEvents=0;fillColor=none;points=[[0,0.5],[1,0.5]];portConstraint=eastwest;top=0;left=0;right=0;bottom=0;" vertex="1" parent="g749_msIezuKp8OIKfwZ-295">
          <mxGeometry y="120" width="530" height="30" as="geometry" />
        </mxCell>
        <mxCell id="g749_msIezuKp8OIKfwZ-306" value="" style="shape=partialRectangle;overflow=hidden;connectable=0;fillColor=none;top=0;left=0;bottom=0;right=0;" vertex="1" parent="g749_msIezuKp8OIKfwZ-305">
          <mxGeometry width="30" height="30" as="geometry" />
        </mxCell>
        <mxCell id="g749_msIezuKp8OIKfwZ-307" value="`address` varchar(200) DEFAULT NULL COMMENT &#39;站所地址&#39;" style="shape=partialRectangle;overflow=hidden;connectable=0;fillColor=none;top=0;left=0;bottom=0;right=0;align=left;spacingLeft=6;" vertex="1" parent="g749_msIezuKp8OIKfwZ-305">
          <mxGeometry x="30" width="500" height="30" as="geometry" />
        </mxCell>
        <mxCell id="g749_msIezuKp8OIKfwZ-308" value="" style="shape=partialRectangle;collapsible=0;dropTarget=0;pointerEvents=0;fillColor=none;points=[[0,0.5],[1,0.5]];portConstraint=eastwest;top=0;left=0;right=0;bottom=0;" vertex="1" parent="g749_msIezuKp8OIKfwZ-295">
          <mxGeometry y="150" width="530" height="30" as="geometry" />
        </mxCell>
        <mxCell id="g749_msIezuKp8OIKfwZ-309" value="" style="shape=partialRectangle;overflow=hidden;connectable=0;fillColor=none;top=0;left=0;bottom=0;right=0;" vertex="1" parent="g749_msIezuKp8OIKfwZ-308">
          <mxGeometry width="30" height="30" as="geometry" />
        </mxCell>
        <mxCell id="g749_msIezuKp8OIKfwZ-310" value="`location` int(100) DEFAULT NULL COMMENT &#39;坐标位置&#39;" style="shape=partialRectangle;overflow=hidden;connectable=0;fillColor=none;top=0;left=0;bottom=0;right=0;align=left;spacingLeft=6;" vertex="1" parent="g749_msIezuKp8OIKfwZ-308">
          <mxGeometry x="30" width="500" height="30" as="geometry" />
        </mxCell>
        <mxCell id="g749_msIezuKp8OIKfwZ-311" value="" style="shape=partialRectangle;collapsible=0;dropTarget=0;pointerEvents=0;fillColor=none;points=[[0,0.5],[1,0.5]];portConstraint=eastwest;top=0;left=0;right=0;bottom=0;" vertex="1" parent="g749_msIezuKp8OIKfwZ-295">
          <mxGeometry y="180" width="530" height="30" as="geometry" />
        </mxCell>
        <mxCell id="g749_msIezuKp8OIKfwZ-312" value="" style="shape=partialRectangle;overflow=hidden;connectable=0;fillColor=none;top=0;left=0;bottom=0;right=0;" vertex="1" parent="g749_msIezuKp8OIKfwZ-311">
          <mxGeometry width="30" height="30" as="geometry" />
        </mxCell>
        <mxCell id="g749_msIezuKp8OIKfwZ-313" value="`telephone` varchar(30) DEFAULT NULL COMMENT &#39;联系电话&#39;" style="shape=partialRectangle;overflow=hidden;connectable=0;fillColor=none;top=0;left=0;bottom=0;right=0;align=left;spacingLeft=6;" vertex="1" parent="g749_msIezuKp8OIKfwZ-311">
          <mxGeometry x="30" width="500" height="30" as="geometry" />
        </mxCell>
        <mxCell id="g749_msIezuKp8OIKfwZ-314" value="" style="shape=partialRectangle;collapsible=0;dropTarget=0;pointerEvents=0;fillColor=none;points=[[0,0.5],[1,0.5]];portConstraint=eastwest;top=0;left=0;right=0;bottom=0;" vertex="1" parent="g749_msIezuKp8OIKfwZ-295">
          <mxGeometry y="210" width="530" height="30" as="geometry" />
        </mxCell>
        <mxCell id="g749_msIezuKp8OIKfwZ-315" value="" style="shape=partialRectangle;overflow=hidden;connectable=0;fillColor=none;top=0;left=0;bottom=0;right=0;" vertex="1" parent="g749_msIezuKp8OIKfwZ-314">
          <mxGeometry width="30" height="30" as="geometry" />
        </mxCell>
        <mxCell id="g749_msIezuKp8OIKfwZ-316" value="`contact_person` varchar(30) DEFAULT NULL COMMENT &#39;联系人&#39;" style="shape=partialRectangle;overflow=hidden;connectable=0;fillColor=none;top=0;left=0;bottom=0;right=0;align=left;spacingLeft=6;" vertex="1" parent="g749_msIezuKp8OIKfwZ-314">
          <mxGeometry x="30" width="500" height="30" as="geometry" />
        </mxCell>
        <mxCell id="g749_msIezuKp8OIKfwZ-317" value="" style="shape=partialRectangle;collapsible=0;dropTarget=0;pointerEvents=0;fillColor=none;points=[[0,0.5],[1,0.5]];portConstraint=eastwest;top=0;left=0;right=0;bottom=0;" vertex="1" parent="g749_msIezuKp8OIKfwZ-295">
          <mxGeometry y="240" width="530" height="30" as="geometry" />
        </mxCell>
        <mxCell id="g749_msIezuKp8OIKfwZ-318" value="" style="shape=partialRectangle;overflow=hidden;connectable=0;fillColor=none;top=0;left=0;bottom=0;right=0;" vertex="1" parent="g749_msIezuKp8OIKfwZ-317">
          <mxGeometry width="30" height="30" as="geometry" />
        </mxCell>
        <mxCell id="g749_msIezuKp8OIKfwZ-319" value="`create_time` datetime DEFAULT NULL COMMENT &#39;创建时间&#39;" style="shape=partialRectangle;overflow=hidden;connectable=0;fillColor=none;top=0;left=0;bottom=0;right=0;align=left;spacingLeft=6;" vertex="1" parent="g749_msIezuKp8OIKfwZ-317">
          <mxGeometry x="30" width="500" height="30" as="geometry" />
        </mxCell>
        <mxCell id="g749_msIezuKp8OIKfwZ-320" value="" style="shape=partialRectangle;collapsible=0;dropTarget=0;pointerEvents=0;fillColor=none;points=[[0,0.5],[1,0.5]];portConstraint=eastwest;top=0;left=0;right=0;bottom=0;" vertex="1" parent="g749_msIezuKp8OIKfwZ-295">
          <mxGeometry y="270" width="530" height="30" as="geometry" />
        </mxCell>
        <mxCell id="g749_msIezuKp8OIKfwZ-321" value="" style="shape=partialRectangle;overflow=hidden;connectable=0;fillColor=none;top=0;left=0;bottom=0;right=0;" vertex="1" parent="g749_msIezuKp8OIKfwZ-320">
          <mxGeometry width="30" height="30" as="geometry" />
        </mxCell>
        <mxCell id="g749_msIezuKp8OIKfwZ-322" value="`update_time` datetime DEFAULT NULL COMMENT &#39;更新时间&#39;" style="shape=partialRectangle;overflow=hidden;connectable=0;fillColor=none;top=0;left=0;bottom=0;right=0;align=left;spacingLeft=6;" vertex="1" parent="g749_msIezuKp8OIKfwZ-320">
          <mxGeometry x="30" width="500" height="30" as="geometry" />
        </mxCell>
        <mxCell id="g749_msIezuKp8OIKfwZ-334" value="" style="edgeStyle=entityRelationEdgeStyle;fontSize=12;html=1;endArrow=ERoneToMany;" edge="1" parent="1" source="g749_msIezuKp8OIKfwZ-6" target="g749_msIezuKp8OIKfwZ-59">
          <mxGeometry width="100" height="100" relative="1" as="geometry">
            <mxPoint x="-2480" y="440" as="sourcePoint" />
            <mxPoint x="-2380" y="340" as="targetPoint" />
          </mxGeometry>
        </mxCell>
        <mxCell id="g749_msIezuKp8OIKfwZ-335" value="" style="edgeStyle=entityRelationEdgeStyle;fontSize=12;html=1;endArrow=ERoneToMany;entryX=0;entryY=0.5;entryDx=0;entryDy=0;" edge="1" parent="1" source="g749_msIezuKp8OIKfwZ-6" target="g749_msIezuKp8OIKfwZ-49">
          <mxGeometry width="100" height="100" relative="1" as="geometry">
            <mxPoint x="-2490" y="290" as="sourcePoint" />
            <mxPoint x="-2390" y="190" as="targetPoint" />
          </mxGeometry>
        </mxCell>
        <mxCell id="g749_msIezuKp8OIKfwZ-336" value="" style="edgeStyle=entityRelationEdgeStyle;fontSize=12;html=1;endArrow=ERoneToMany;exitX=1;exitY=0.5;exitDx=0;exitDy=0;" edge="1" parent="1" source="g749_msIezuKp8OIKfwZ-6" target="g749_msIezuKp8OIKfwZ-69">
          <mxGeometry width="100" height="100" relative="1" as="geometry">
            <mxPoint x="-2530" y="700" as="sourcePoint" />
            <mxPoint x="-2430" y="600" as="targetPoint" />
          </mxGeometry>
        </mxCell>
        <mxCell id="g749_msIezuKp8OIKfwZ-337" value="" style="edgeStyle=entityRelationEdgeStyle;fontSize=12;html=1;endArrow=ERoneToMany;entryX=0.002;entryY=0.717;entryDx=0;entryDy=0;entryPerimeter=0;exitX=1;exitY=0.5;exitDx=0;exitDy=0;" edge="1" parent="1" source="g749_msIezuKp8OIKfwZ-129" target="g749_msIezuKp8OIKfwZ-157">
          <mxGeometry width="100" height="100" relative="1" as="geometry">
            <mxPoint x="-1420" y="910" as="sourcePoint" />
            <mxPoint x="-1320" y="810" as="targetPoint" />
          </mxGeometry>
        </mxCell>
        <mxCell id="g749_msIezuKp8OIKfwZ-338" value="" style="edgeStyle=entityRelationEdgeStyle;fontSize=12;html=1;endArrow=ERoneToMany;exitX=1;exitY=0.5;exitDx=0;exitDy=0;" edge="1" parent="1" source="g749_msIezuKp8OIKfwZ-76" target="g749_msIezuKp8OIKfwZ-160">
          <mxGeometry width="100" height="100" relative="1" as="geometry">
            <mxPoint x="-1360" y="640" as="sourcePoint" />
            <mxPoint x="-1260" y="540" as="targetPoint" />
          </mxGeometry>
        </mxCell>
        <mxCell id="g749_msIezuKp8OIKfwZ-339" value="" style="edgeStyle=entityRelationEdgeStyle;fontSize=12;html=1;endArrow=ERoneToMany;" edge="1" parent="1" source="g749_msIezuKp8OIKfwZ-164" target="g749_msIezuKp8OIKfwZ-144">
          <mxGeometry width="100" height="100" relative="1" as="geometry">
            <mxPoint x="-1320" y="980" as="sourcePoint" />
            <mxPoint x="-1220" y="880" as="targetPoint" />
          </mxGeometry>
        </mxCell>
        <mxCell id="g749_msIezuKp8OIKfwZ-340" value="" style="edgeStyle=entityRelationEdgeStyle;fontSize=12;html=1;endArrow=ERoneToMany;" edge="1" parent="1" source="g749_msIezuKp8OIKfwZ-296" target="g749_msIezuKp8OIKfwZ-141">
          <mxGeometry width="100" height="100" relative="1" as="geometry">
            <mxPoint x="-2040" y="1170" as="sourcePoint" />
            <mxPoint x="-1940" y="1070" as="targetPoint" />
          </mxGeometry>
        </mxCell>
      </root>
    </mxGraphModel>
  </diagram>
</mxfile>
